<?xml version="1.0" encoding="UTF-8"?>
<svg id="Layer_2" data-name="Layer 2" xmlns="http://www.w3.org/2000/svg" viewBox="0 0 119.21 117.44">
  <defs>
    <style>
      .cls-1 {
        fill: #d18652;
      }

      .cls-2 {
        fill: #a55d2d;
      }

      .cls-3 {
        fill: #824216;
      }
    </style>
  </defs>
  <g id="Ebene_2" data-name="Ebene 2">
    <g>
      <path class="cls-3" d="M115.74,21.96c-3.33-12.16-16.64-11.35-27.06-12.09l4.24,1.76C86.86,5.73,78.02-.38,69.27.02c-4.77.22-8.97,1.93-13.22,3.99-3.61,1.75-6.34,4.11-10.24,4.36l5.18,2.97c-3.9-5.59-6.83-10.19-14.48-7.96-3.58,1.04-7.16,3.09-10.51,4.72-3.75,1.82-5.81,3.8-6.32,8.08l6-6c-5.62.58-10.55,2.46-13.54,7.58s-2.13,12.39-2.29,18.31l1.76-4.24c-4.34,3.67-9.62,7.74-11.16,13.48s1.17,11.94,3.61,17.06c1.22,2.57,3.83,5.35,4.63,7.99s.17,6.2.18,8.96c.02,6.05-.16,12.38.75,18.38.84,5.49,4.34,8.76,9.81,9.56,6.98,1.01,14.26.94,21.3.99,14.58.11,29.15-.6,43.73-.53l-5.18-2.97c4.83,6.33,10.02,14.78,19.16,12.22,7.97-2.23,12.64-7.82,11.48-16.13l-5.79,7.6c17.41-.87,14.61-24.95,14.89-37.24.37-16.48.55-33.09-3.29-49.23-1.78-7.51-13.36-4.33-11.57,3.19,2.88,12.12,3.18,24.56,3.03,36.97-.05,4.35.99,34.11-3.06,34.31-4.28.21-6.34,3.64-5.79,7.6.11.76-4.58.87-2.99,1.46-2.89-1.08-4.88-6.65-7.26-8.49-2.75-2.12-7.36-1.31-10.59-1.28-3.98.03-7.95.11-11.93.19-8.28.17-16.56.39-24.85.33-3.97-.03-7.94-.12-11.91-.31-1.83-.09-4.2-.7-5.95-.36l-1.98-.16c.63,1.39.8,1.38.5-.02.5-3-.38-6.74-.45-9.8-.09-3.65-.1-7.31-.07-10.96.03-3.96.3-6.92-1.83-10.34-1.99-3.2-4.03-6.33-5.45-9.84-1.32-3.26-2.32-5.41,0-8.18,2.12-2.55,5.83-4.3,7.45-7.18,2.48-4.43-2.32-16.2,4.65-16.92,3.53-.37,5.58-2.48,6-6l.09-.75-1.76,4.24c1.06-1.3,3.57-1.93,5.07-2.62,1.01-.47,2.02-.94,3.02-1.41,2.3-.43,2.18-1.25-.35-2.47-.39.76,4.29,5.94,5.03,6.37,6.58,3.85,14.31-2.84,19.97-5.49,2.84-1.33,6.32-2.78,9.56-1.95s7.58,4.06,10.22,6.24c3.45,2.84,5.22,3.43,9.86,3.8,3.07.25,10.85-.36,11.78,3,2.04,7.44,13.62,4.28,11.57-3.19Z"/>
      <path class="cls-2" d="M24.17,16.34c-4.54.47-8.01,4.27-8.07,8.84-.28,21.43-2.22,52.64-.58,71.72.1,1.16.52,2.34,1.34,3.17,1.02,1.04,2.6,1.23,4.05,1.36,26.94,2.25,54.09-1.03,81.05.91,2.4.17,5.1.29,6.87-1.33.98-.9,1.5-2.18,1.9-3.45,1.71-5.32,2.02-10.99,2.1-16.58.26-18.7,1.64-39.28-2.88-57.43-.37-1.47-.78-3.01-1.83-4.12-1.3-1.38-3.3-1.81-5.18-2.11-9.21-1.49-20.96-1.65-30.24-2.67-15.64-1.72-30.82-.15-48.54,1.68Z"/>
      <g>
        <path class="cls-1" d="M29.88,21.9s.11.16.25.39c.28-.15.55-.3.82-.45,2.45-1.37,4.94-2.67,7.37-4.08,1.78-1.03,3.53-2.1,5.28-3.17.55-.33,1.09-.69,1.64-1.03-1.45-2.16-2.4-3.55-2.58-3.8-.29-.38-.61-.77-1.07-.92-.09-.03-.18-.05-.28-.06-1.62-.17-3.24.3-4.72.99-3.02,1.41-6.05,2.82-9.07,4.22-.7.33-1.47.72-1.74,1.45-.37.99.36,2.02,1.04,2.83,1.02,1.21,2.04,2.42,3.06,3.63Z"/>
        <path class="cls-1" d="M103.12,99.18c-.72-1.95-1.72-3.77-2.97-5.43-6.84-9.01-16.07-22.52-23.69-33.01,7.94-4.92,12.76-9.22,20.42-14.57.54-.38,1.38-1.27,1.7-3.57.24-1.76.31-3.8-.14-5.52-5.02-19.35-9.39-22.87-23.51-30.38-1.8-.96-5.43-.78-7.46-.57-2.16.22-4.26,1.17-6.25,2.05-5.29,2.33-6.22,3.37-12.29,6.57-.44.27-.92.6-1.38.89-1.32.81-1.85,1.16-3.17,1.96-2.63,1.6-5.28,3.14-7.98,4.63-1.92,1.05-3.93,2.04-5.83,3.18-8.77,5.64-16.76,11.74-22.36,17.82-1.94,2.11-2.67,5.06-1.98,7.85,2.7,10.99,10.89,21.96,19.58,30.16,1.08,1.02,2.25,2.04,3.67,2.46,1.74.52,3.62.08,5.35-.46,2.62-.83,5.16-1.9,7.6-3.16,4.37-2.26,8.69-4.61,12.99-7,1.97-1.53,4.2-2.81,6.3-4.09,2.74-1.67,5.55-3.26,8.2-5.07,1.6-1.09,3.1,1.51,1.51,2.59-2.59,1.77-5.34,3.32-8.02,4.96-.39.24-.78.48-1.17.72,10.33,10.82,18.14,25.62,27.84,36.45.99,1.11,2.05,2.24,3.45,2.76,2.54.95,8.92-2.29,10.23-4.67,1.26-2.29.28-5.08-.64-7.55Z"/>
        <path class="cls-2" d="M41.28,64.88c-.59-2.81-1.5-5.34-2.84-7.87-1.85-3.47-4.02-6.45-6.41-9.49-1.81-2.31-3.97-4.42-6.68-5.62-4.39-1.94-9.19-1.23-13.53.49-.69.27-.99.88-1,1.47,1.43-.69,3.09-1.03,4.56-1.32,2.59-.5,5.22-.34,7.67.66,3.15,1.29,4.61,3.3,7.05,6.25,1.46,1.81,2.77,4.02,3.98,5.97,2.71,4.38,4.53,9.02,4.92,14.2.1,1.27.12,2.66-.19,3.94-.02.69-.09,1.39-.26,2.06-.45,1.72-1.61,3.02-2.98,4.09-.95.74-1.94,1.43-2.94,2.1.42.49,1.1.73,1.81.28,3.55-2.21,6.86-4.52,7.46-8.93.37-2.77-.07-5.56-.64-8.27Z"/>
        <polygon class="cls-2" points="45.24 13.55 46.97 16.02 40.66 19.83 40.54 16.44 45.24 13.55"/>
      </g>
    </g>
  </g>
</svg>