<?xml version="1.0" encoding="UTF-8"?>
<svg id="Layer_2" data-name="Layer 2" xmlns="http://www.w3.org/2000/svg" viewBox="0 0 83.46 79.07">
  <defs>
    <style>
      .cls-1 {
        fill: #872722;
      }

      .cls-2 {
        fill: #bc5853;
      }

      .cls-3 {
        fill: #913b39;
      }
    </style>
  </defs>
  <g id="Ebene_2" data-name="Ebene 2">
    <g>
      <path class="cls-1" d="M83.39,23.92c-.9-6.32-8.61-12.9-13.4-16.58-7.86-6.06-14.67-3.01-21.74,2.72l4.24-1.76c-4.97-.37-9.88-.87-14.87-.82l4.24,1.76C37.65,5,33.1-1.19,26.35.2c-6.19,1.27-12.68,8-17.08,12.19-2.07,1.97-4.3,4.05-4.63,7.06-.38,3.42,1.49,4.91,2.71,7.8,1.04,2.46.42,5.81.34,8.59-.12,3.85-.22,7.69-.28,11.54l1.76-4.24C4.91,46.91-.96,50.59.13,57.08c.83,4.94,5.54,8.86,9.11,12s7.48,6.55,11.99,8.12c5.92,2.06,10.85-2.91,14.82-6.69l-4.24,1.76c6.67-.05,13.34-.27,20.01-.32l-4.24-1.76c2.68,2.74,5.1,6.26,8.6,8.01,5.35,2.66,10.96-1.25,15.36-4.23,3.71-2.51,9.33-6.23,11.01-10.53,2.14-5.47-3.06-11.42-6.36-15.3l1.76,4.24c.14-6.94.36-13.87,0-20.81l-1.76,4.24c2.15-2.17,5.24-4.44,6.58-7.27,3.29-6.94-7.05-13.04-10.36-6.06-1.49,3.15-5.69,4.36-6.36,8.28-.79,4.68.12,10.28.02,15.07-.1,4.92-.47,7.8,2.47,11.79.45.61.96,1.74,1.53,2.27l.4.7c.66,1.51.94.87.83-1.92-.14-.1-3.47,3.15-4.04,3.61-.9.71-7.58,4.16-7.61,4.71.02-.44,3.86,2.48.74-.66-.99-.99-1.91-2.04-2.87-3.06-2.84-3.07-5.29-3.34-9.36-3.28-5.14.07-10.33.01-15.47.28-2.07.11-3.47.48-5.15,1.76-.4.31-2.21,1.78-2.56,2.38-.64,1.11-2.87.88.19,1.5-2.41-.49-5.19-3.34-6.96-4.87-1.15-.99-2.27-2.02-3.36-3.07-.53-.51-1.02-1.26-1.63-1.64-1.7-1.06.08-1.16-1.54-.04-2.18,1.52.15.44.46.25.81-.49,1.7-1.54,2.45-2.21,1.54-1.38,3.46-2.69,4.28-4.64,1.51-3.59.65-9.12.77-12.97.12-4.05,1.31-9.66-.5-13.41-.22-.45-1.4-2.39-1.92-2.83l-.46-.72c-.93-1.83-1.25-.83-.95,3.01.63.07,4.15-3.93,4.58-4.31,1.64-1.44,3.33-2.83,5.1-4.11.48-.35,2.2-1.87,2.95-2.06-1.22-.61-1.36-.56-.44.16.4.37.8.75,1.19,1.13,1.65,1.59,3.35,4,5.39,5.09,2.22,1.2,4.91.77,7.34.84,4.01.12,9.9,1.96,13.59-.02,1.69-.91,3.44-3.41,5.47-3.62,1.28-.13,3.16,2.01,4.31,3.05,1.98,1.79,6.13,5.49,6.51,8.2,1.08,7.61,12.65,4.38,11.57-3.19Z"/>
      <path class="cls-3" d="M18.94,14.91c-2.72.28-4.79,2.55-4.83,5.28-.17,12.81-1.33,31.46-.35,42.87.06.69.31,1.4.8,1.9.61.62,1.55.74,2.42.81,16.1,1.35,32.33-.62,48.45.55,1.43.1,3.05.17,4.11-.8.59-.54.89-1.3,1.14-2.06,1.02-3.18,1.21-6.57,1.25-9.91.16-11.18.98-23.48-1.72-34.33-.22-.88-.47-1.8-1.09-2.46-.78-.83-1.97-1.08-3.09-1.26-5.51-.89-12.53-.99-18.07-1.6-9.35-1.03-18.42-.09-29.01,1.01Z"/>
      <path class="cls-2" d="M24.29,71.85c3.57-1.03,8.33-6.66,11.45-9.3,2.12-1.8,5.22-4.77,6.49-4.86s2.02.17,3.42,1.9c2.13,2.65,6.02,6.01,7.65,7.92.82.97,4.21,4.55,4.81,4.89,1.29.73,1.85,1.22,3.16.53,6.99-3.69,8.72-4.82,14.29-10,.73-.68,1.37-1.49,1.51-1.8.18-.41-.01-.87-.2-1.27-3.57-7.49-7.17-9.12-12.21-15.71-.41-.54-.84-1.1-1-1.76-.37-1.53.78-2.97,1.85-4.13,3.64-3.9,7.37-7.71,11.2-11.43.39-.38.79-.79.9-1.32.13-.68-.28-1.33-.68-1.9-4.34-6.18-5.83-8.05-11.89-12.56-.8-.6-1.65-1.19-2.63-1.4-1.22-.26-2.49.13-3.64.62-5.16,2.22-9.11,6.5-12.88,10.66-6.12-4.67-10.45-10.08-15.45-14.37-.66-.56-1.64-.66-2.5-.58-.92.08-1.75.6-2.52,1.11-4.98,3.32-9.63,7.16-13.84,11.42-.48.49-.99,1.04-1.06,1.73-.06.65.28,1.25.62,1.81,2.94,4.83,6.4,9.33,10.31,13.41.7.73,1.46,1.55,1.44,2.56,0,.93-.61,1.79-1.33,2.39-5.63,4.69-7.79,6.58-13.66,11.89-.62.57-1.36,1.05-1.73,1.81-.87,1.8.44,3.85,1.76,5.34,3.72,4.19,12.45,11.83,16.33,12.4Z"/>
    </g>
  </g>
</svg>