<?xml version="1.0" encoding="UTF-8"?>
<svg id="Layer_2" data-name="Layer 2" xmlns="http://www.w3.org/2000/svg" viewBox="0 0 38.81 38.2">
  <defs>
    <style>
      .cls-1 {
        fill: #f9ecd7;
      }

      .cls-2 {
        fill: #107ba0;
      }
    </style>
  </defs>
  <g id="Ebene_2" data-name="Ebene 2">
    <g>
      <path class="cls-1" d="M15,13.27c.23-3.78-.06-5.06.19-8.45.04-.52.1-1.07.45-1.45.34-.37.87-.48,1.37-.55,2.42-.35,5.89-.61,8.21.16.41.14.84.3,1.12.63.39.45.43,1.1.43,1.69.02,2.59-.23,5.18-.75,7.72-.05.26-.1.56.09.75.15.15.38.16.59.16,2.44,0,4.88,0,7.32,0,.57,0,1.2.02,1.65.38.57.46.64,1.29.64,2.01.02,2.53-.16,5.05-.53,7.55-.05.36-.12.73-.35,1-.26.3-.66.41-1.05.5-2.72.63-5.57.73-8.33.3-.35,2.45-.7,4.9-1.05,7.35-.11.79-.27,1.66-.89,2.15-.49.39-1.16.46-1.79.49-2.13.12-4.26.08-6.38-.13-.37-.04-.77-.09-1.05-.33-.28-.24-.38-.63-.47-.99-.53-2.17-.52-5.08-.65-7.31-.07-1.23.26-1.86-.56-2.56-.57-.48-1.44-.56-2.18-.66-2.03-.26-5.43-.05-7.34-.58-.33-.09-.67-.19-.9-.45-.29-.32-.32-.8-.32-1.24,0-2.51-.03-3.45.57-5.88.11-.45.25-.92.59-1.22.33-.29.79-.38,1.22-.45,3.48-.55,6.62-.76,10.14-.58Z"/>
      <path class="cls-2" d="M17.47,13.27c.09-1.62.09-3.23.08-4.84,0-.67,0-1.34.02-2,.01-.39.03-.78.06-1.17,0-.04.06-.47.04-.49.13.12-.65.3-.2.47s1.58-.18,2.09-.22c.86-.06,1.72-.08,2.57-.05.66.03,1.29.09,1.93.25.04.01.47.16.49.14-.01,0-.23-.48-.28-.48.03,0,.02,1.07.02,1.14-.02,1.97-.22,3.92-.57,5.85-.19,1.05-.38,2.03.18,3.02s1.65,1.43,2.79,1.49c2.1.11,4.24,0,6.34,0,.23,0,1.15.15,1.32,0,.13-.1.91,1.15-.28-.35-.65-.82-.19-.23-.24-.04-.16.64-.02,1.69-.05,2.43-.04,1.18-.13,2.36-.26,3.54-.03.28-.3,1.15-.19,1.4.29.6.25-.7.65-.48-.09-.05-.64.15-.74.17-2.13.45-4.4.51-6.56.2-1.19-.17-2.84.28-3.04,1.73s-.42,2.94-.63,4.41c-.1.74-.21,1.47-.31,2.21-.02.15-.37,1.69-.31,1.76-.18-.17.88-.15-.09-.19-.73-.03-1.48.06-2.21.06s-1.47-.01-2.21-.05c-.41-.02-.82-.05-1.23-.08-.16-.01-.33-.03-.49-.04-.4-.05-.33-.02.23.09l.64,1.09c-.64-1.52-.62-3.33-.7-4.95-.07-1.52.16-3.32-.23-4.8-1.01-3.8-5.93-3.38-9-3.49-.62-.02-1.26-.03-1.87-.11-.18-.02-.73-.25-.9-.19.47,1.18.67,1.41.6.7,0-.22,0-.44,0-.66,0-1.42.05-2.74.37-4.12.37-1.57-.21.03-.46-.24.05.06,1.23-.23,1.36-.25.92-.13,1.85-.23,2.78-.31,1.99-.16,3.99-.17,5.99-.08,3.18.14,3.18-4.8,0-4.95-2.61-.12-5.21-.04-7.81.26s-5.3.39-6.32,3.15C.13,16.2,0,18.44,0,20.54c0,1.18,0,2.34.65,3.36s1.83,1.5,2.96,1.72c2.13.41,4.31.31,6.47.45.35.02.71.05,1.06.1.08.01.45.15.52.09.02-.02-.79-.77-.35-.71,0,0,.06,2.88.07,3.12.09,2.25.07,4.78.9,6.89,1.14,2.89,4.75,2.6,7.34,2.62,2.91.02,6.29.05,7.45-3.18.43-1.19.48-2.55.66-3.8.23-1.63.46-3.27.7-4.9l-3.04,1.73c3.21.47,6.63.57,9.79-.33,3.51-1,3.33-5.08,3.52-8.09.17-2.76.63-6.75-2.65-7.89-1.46-.5-3.18-.28-4.7-.28-1.64,0-3.32.1-4.95-.02l1.25.34-.27-.14.89.89-.12-.22.34,1.25c-.08.21-.09.17-.01-.11.05-.24.09-.48.14-.72.09-.48.16-.96.23-1.44.13-.94.25-1.88.32-2.83.13-1.66.37-3.61-.21-5.21C27.75.01,23.22-.09,20.35.03c-1.43.06-2.99.13-4.38.47-2.17.52-3.07,2.25-3.26,4.33-.25,2.81-.03,5.64-.19,8.45-.18,3.18,4.77,3.17,4.95,0Z"/>
    </g>
  </g>
</svg>