<?xml version="1.0" encoding="UTF-8"?>
<svg id="Layer_2" data-name="Layer 2" xmlns="http://www.w3.org/2000/svg" viewBox="0 0 125.91 121.84">
  <defs>
    <style>
      .cls-1 {
        fill: #1b89af;
      }

      .cls-2 {
        fill: #107ba0;
      }

      .cls-3 {
        fill: #41b2e3;
      }
    </style>
  </defs>
  <g id="Ebene_2" data-name="Ebene 2">
    <g>
      <path class="cls-2" d="M116.17,43.57c1.4,1.78.19-3.39.09-3.92-.33-1.65-.64-3.32-1.13-4.93-.96-3.16-2.53-6.11-5.48-7.83-5.71-3.35-14.41-3.01-20.8-3.47l6,6c.95-10.7-3.1-20.51-13.26-25.08C71.42-.23,58.82-1.63,48.22,2.3c-8.27,3.07-19.5,10.63-17.71,20.89,2.07,11.87,18.24,10.13,26.41,6.73l-6.78-2.76c.64,1.11,1.38,2.15,1.94,3.29l5.18-9.03c-11.52.12-23.74.55-35.08,2.64-4.36.8-8.17,3.35-10.42,7.21-2.64,4.52-2.08,9.93-2.21,14.96-.05,2.05.26,4.6-.38,6.45-.85,2.44-3.15,4.88-4.32,7.24-2.46,4.96-4.16,10.15-4.68,15.67-1.02,10.78,3,21.23,10.18,29.16l-1.76-4.24c.23,7.04-.65,16.72,7.45,19.66,4.25,1.54,9.63,1.19,14.09,1.37s9,.24,13.5.24c19-.02,37.97-1.14,56.96.02,8.31.51,13.72-2.48,15.98-10.65.61-2.2.64-2.56,1.72-4.19,1.17-1.77,2.59-3.2,3.57-5.12,1.7-3.32,2.46-6.93,2.97-10.59,2.2-15.69,1.7-33.04-7.72-46.45-4.41-6.27-14.81-.28-10.36,6.06,4.73,6.74,6.74,14.4,7.09,22.57.3,7.08.82,17.5-3.09,23.74-1.01,1.6-2.62,2.57-3.72,4.05-1.18,1.58-1.23,3.33-1.65,5.19-.58,2.56-.2,3.1-2.36,3.54s-5.06-.32-7.25-.42c-9.65-.45-19.31-.32-28.96-.13s-19.31.48-28.97.34c-4.5-.06-9-.21-13.49-.51-.99-.06-2.82.03-3.85-.29.98.29.11,2.39.5-.07.32-2-.23-4.6-.35-6.62-.28-4.47-2.25-5.91-4.55-9.48s-3.76-7.96-4.05-12.32c-.25-3.89.43-7.68,1.78-11.32,1.61-4.35,4.8-7.69,6.67-11.79s1.04-10.08,1.13-14.54c.11-5.37.33-6.74,5.9-7.34,9.88-1.06,19.79-1.93,29.73-2.03,4.81-.05,7.13-4.99,5.18-9.03-.56-1.15-1.3-2.19-1.94-3.29-1.19-2.06-4.38-3.76-6.78-2.76-3.09,1.29-5.62,2.11-9.02,1.99-.9-.03-1.8-.09-2.7-.17l.27,1.05c.27-1.15,1.5-2.26,2.28-3.02,3.82-3.7,9.23-5.65,14.46-6.06,5.93-.47,12.58.61,17.95,3.23,5.75,2.81,6.4,8.25,5.89,14.06-.3,3.39,3,5.78,6,6,3.43.25,12.77-.32,14.71,2.5,1.18,1.7,1.27,5.51,1.6,7.48.45,2.65.83,4.51,2.53,6.66,4.77,6.07,13.21-2.48,8.49-8.49Z"/>
      <path class="cls-1" d="M23.77,29.8c-4.54.47-8.01,4.27-8.07,8.84-.28,21.43-2.22,52.64-.58,71.72.1,1.16.52,2.34,1.34,3.17,1.02,1.04,2.6,1.23,4.05,1.36,26.94,2.25,54.09-1.03,81.05.91,2.4.17,5.1.29,6.87-1.33.98-.9,1.5-2.18,1.9-3.45,1.71-5.32,2.02-10.99,2.1-16.58.26-18.7,1.64-39.28-2.88-57.43-.37-1.47-.78-3.01-1.83-4.12-1.3-1.38-3.3-1.81-5.18-2.11-9.21-1.49-20.96-1.65-30.24-2.67-15.64-1.72-30.82-.15-48.54,1.68Z"/>
      <path class="cls-3" d="M111.93,47.78c-3.81-5.16-8.89-9.39-14.82-11.93-2.23-.95-5.14-1.84-8.43-2.64-.11-.11-.22-.21-.33-.32.45-2.57.77-5.15.69-7.75-.12-4.1-1.3-8.31-4.05-11.35-2.45-2.71-5.91-4.26-9.37-5.4-6.19-2.03-12.81-2.96-19.25-2.03s-12.69,3.84-17.11,8.62c-1.33,1.44-2.51,3.1-2.88,5.02s.24,4.13,1.88,5.2c1.09.71,2.45.83,3.75.93,3.57.27,7.3.52,10.59-.88.93-.39,1.82-.81,2.72-1.16.45.95.89,1.43,1.54,2.47.58.94.69,1.77.75,2.77-1.16,0-2.27,0-3.3.04-3.97.15-7.9.66-11.6,2.03-4.19,1.55-7.9,4.14-11.55,6.7-4.58,3.21-7.48,5.52-10.66,9.43-6.02,7.41-11.88,15.44-13.85,24.79-1.67,7.97-.11,16.57,4.26,23.44s11.49,11.94,19.41,13.81c4.81,1.13,9.8,1.13,14.73,1.11,13.82-.04,27.65-.07,41.47-.11,5.45-.01,10.97-.04,16.24-1.43,5.27-1.39,10.34-4.34,13.16-9,2.18-3.61,2.84-7.92,3.3-12.12,1.52-13.88.99-29.01-7.3-40.24ZM28.27,67.63c-.59,1.55-1.66,3.41-3.3,3.2-1.09-.14-1.83-1.18-2.23-2.2-1.58-4.03.46-9.13,4.39-10.95,2.45-.91,2.2,7.16,1.14,9.95ZM96.7,75.47c-4.41,3.08-10.21,3.99-15.66,4.69-7.94,1.02-15.96,1.97-23.93,1.26-7.14-.64-14.35-2.33-20.15-6.4-.45-.32-.13-1.01.4-.87,19.15,5.14,39.64,5.22,58.83.24.64-.17,1.05.7.51,1.08ZM111.13,66.56c-.24,2.2-2.69,4.22-4.64,3.17-.72-.39-1.21-1.1-1.61-1.82-1.39-2.53-2.95-8.45-.2-9.89.77-.54,1.86-.35,2.62.19.76.54,1.26,1.37,1.75,2.17,1.14,1.9,2.32,3.97,2.07,6.17Z"/>
    </g>
  </g>
</svg>