<?xml version="1.0" encoding="UTF-8"?>
<svg id="Layer_2" data-name="Layer 2" xmlns="http://www.w3.org/2000/svg" viewBox="0 0 121.93 135.98">
  <defs>
    <style>
      .cls-1 {
        fill: #1b89af;
      }

      .cls-2 {
        fill: #f9ecd7;
      }

      .cls-3 {
        fill: #107ba0;
      }

      .cls-4 {
        fill: #41b2e3;
      }
    </style>
  </defs>
  <g id="Ebene_2" data-name="Ebene 2">
    <g>
      <g>
        <path class="cls-3" d="M113.32,43.32c-3.19-4.14-6.66-7.77-11.02-10.7-1.94-1.3-4-2.35-6.15-3.26-1.18-.5-2.38-.97-3.6-1.38-.6-.2-4.71-1.98-2.92-.24l1.54,5.84c1.71-10.65.65-21.92-9.49-28C72.44.04,59.41-1.44,49.1,1.43c-8.73,2.43-20.77,9.84-19.83,20.34,1.11,12.42,17.71,10.91,25.86,7.51l-6.78-2.76c.35.76.82,1.43,1.39,2.03l6-6c-10.62.01-19.19,2.74-27.89,8.81-2,1.4-3.98,2.82-5.88,4.35-.96.77-1.83,1.67-2.8,2.41-1.85,1.43,1.07-.44-.76.54-4.05,2.18-7.3,4.19-9.06,8.73-.31.8-.56,1.56-.74,2.4-.12.56-.78,3.21-.39,2.49.42-.78-1.24,1.44-1.41,1.73-.72,1.19-1.41,2.39-2.04,3.63-2.23,4.44-3.86,9.07-4.48,14.01-1.33,10.47,2.03,20.42,8.61,28.51l-1.76-4.24c-.12,7.93-.18,15.88.25,23.8.37,6.91,1.47,13.51,9.44,14.91s16.43,1.1,24.43,1.11c8.37.01,16.74-.23,25.11-.4s16.74-.27,25.1.03c6.83.24,15.62,2.41,20.63-3.64,4.54-5.49,4.69-14.64,4.89-21.39.1-3.3-.56-7.44.21-10.64.63-2.62,2.74-6.16,3.31-9.49,2.69-15.61,2.19-33.54-7.19-46.92-4.4-6.28-14.81-.29-10.36,6.06,5.09,7.26,6.82,15.6,6.87,24.37.02,4.41-.18,8.94-.89,13.31-.75,4.59-3.54,8.06-3.74,12.68s-.04,9.59-.37,14.37c-.16,2.26-.43,4.48-.95,6.7-.78,3.28-.52,3.2-3.73,3.06-10.31-.43-20.55-.72-30.87-.54-10.3.18-20.6.53-30.91.44-4.82-.04-9.65-.18-14.46-.47-1.05-.06-2.93-.67-3.85-.27l-.96-.08c.54,1.24.73,1.4.56.5-.44-2.25-.32-4.73-.41-7.02-.17-4.55-.2-9.11-.17-13.66.01-2.41.4-5.24-.03-7.62-.41-2.25-1.96-3.68-3.17-5.54-5.12-7.92-4.86-17.62-.74-25.89,1-2,2.23-3.85,3.38-5.76.57-.94,1.26-1.75,1.55-2.82.22-.8-.01-2.58.41-3.38.76-1.43,1.57-1.42,2.97-2.04,2.19-.97,3.52-2.53,5.3-4.09,8-6.99,16.32-11.06,27-11.08,2.93,0,6.42-2.76,6-6s-1.43-5.32-3.03-8.09c-1.19-2.06-4.38-3.76-6.78-2.76-2.01.84-3.85,1.69-6.04,1.93-1.16.04-2.32.02-3.48-.06-1.95-.42-2.27-.29-.94.4,1.58-3.41,6.73-5.72,10.05-6.77,7.33-2.31,17.54-1.47,24.1,2.73,3.7,2.37,4.59,6.26,4.42,10.45-.15,3.64-1.68,7.25,1.42,10.15s8.46,2.86,12.14,4.84,6.83,4.73,9.35,8c1.99,2.59,5.14,3.9,8.21,2.15,2.54-1.45,4.13-5.65,2.15-8.21Z"/>
        <path class="cls-1" d="M22.36,43.86c-4.54.47-8.01,4.27-8.07,8.84-.28,21.43-2.22,52.64-.58,71.72.1,1.16.52,2.34,1.34,3.17,1.02,1.04,2.6,1.23,4.05,1.36,26.94,2.25,54.09-1.03,81.05.91,2.4.17,5.1.29,6.87-1.33.98-.9,1.5-2.18,1.9-3.45,1.71-5.32,2.02-10.99,2.1-16.58.26-18.7,1.64-39.28-2.88-57.43-.37-1.47-.78-3.01-1.83-4.12-1.3-1.38-3.3-1.81-5.18-2.11-9.21-1.49-20.96-1.65-30.24-2.67-15.64-1.72-30.82-.15-48.54,1.68Z"/>
        <path class="cls-4" d="M108.14,46.35c-3.68-4.98-8.57-9.06-14.29-11.51-2.16-.92-4.96-1.78-8.13-2.55-.1-.11-.21-.2-.32-.31.44-2.48.74-4.97.67-7.47-.11-3.96-1.25-8.01-3.9-10.95-2.36-2.61-5.7-4.11-9.04-5.21-5.97-1.96-12.36-2.86-18.57-1.95-6.22.91-12.24,3.7-16.5,8.32-1.28,1.39-2.42,2.99-2.78,4.84s.23,3.98,1.81,5.01c1.05.69,2.37.8,3.62.9,3.44.26,7.04.5,10.22-.85.89-.38,1.76-.78,2.63-1.12.44.92.86,1.38,1.49,2.39.56.9.66,1.71.73,2.68-1.12,0-2.19,0-3.18.04-3.83.15-7.62.63-11.19,1.95-4.04,1.49-7.62,3.99-11.15,6.46-4.42,3.1-7.22,5.33-10.28,9.09-5.81,7.15-11.46,14.9-13.36,23.91-1.61,7.69-.11,15.98,4.11,22.61,4.21,6.63,11.08,11.52,18.73,13.32,4.64,1.09,9.45,1.09,14.21,1.07,13.33-.03,26.67-.07,40-.1,5.26-.01,10.58-.04,15.66-1.38,5.08-1.35,9.98-4.19,12.7-8.69,2.11-3.49,2.74-7.64,3.19-11.69,1.47-13.39.96-27.98-7.04-38.82ZM27.43,65.51c-.57,1.5-1.6,3.29-3.19,3.08-1.05-.13-1.76-1.14-2.15-2.12-1.53-3.89.44-8.81,4.24-10.56,2.36-.88,2.12,6.91,1.1,9.6ZM93.45,69.43c-4.25,2.98-9.85,3.85-15.11,4.52-7.66.98-15.39,1.91-23.08,1.22-6.88-.61-13.85-2.24-19.44-6.18-.43-.3-.12-.97.39-.83,18.48,4.96,38.24,5.04,56.76.23.62-.16,1.02.67.49,1.04ZM107.37,64.47c-.24,2.12-2.6,4.07-4.48,3.06-.7-.37-1.17-1.06-1.55-1.75-1.34-2.44-2.84-8.15-.19-9.54.74-.52,1.8-.34,2.53.19.73.52,1.22,1.32,1.68,2.09,1.1,1.83,2.24,3.83,2,5.95Z"/>
      </g>
      <g>
        <path class="cls-2" d="M56.5,94.45c.23-3.78-.06-5.06.19-8.45.04-.52.1-1.07.45-1.45.34-.37.87-.48,1.37-.55,2.42-.35,5.89-.61,8.21.16.41.14.84.3,1.12.63.39.45.43,1.1.43,1.69.02,2.59-.23,5.18-.75,7.72-.05.26-.1.56.09.75.15.15.38.16.59.16,2.44,0,4.88,0,7.32,0,.57,0,1.2.02,1.65.38.57.46.64,1.29.64,2.01.02,2.53-.16,5.05-.53,7.55-.05.36-.12.73-.35,1-.26.3-.66.41-1.05.5-2.72.63-5.57.73-8.33.3-.35,2.45-.7,4.9-1.05,7.35-.11.79-.27,1.66-.89,2.15-.49.39-1.16.46-1.79.49-2.13.12-4.26.08-6.38-.13-.37-.04-.77-.09-1.05-.33-.28-.24-.38-.63-.47-.99-.53-2.17-.52-5.08-.65-7.31-.07-1.23.26-1.86-.56-2.56-.57-.48-1.44-.56-2.18-.66-2.03-.26-5.43-.05-7.34-.58-.33-.09-.67-.19-.9-.45-.29-.32-.32-.8-.32-1.24,0-2.51-.03-3.45.57-5.88.11-.45.25-.92.59-1.22.33-.29.79-.38,1.22-.45,3.48-.55,6.62-.76,10.14-.58Z"/>
        <path class="cls-3" d="M58.97,94.45c.09-1.62.09-3.23.08-4.84,0-.67,0-1.34.02-2,.01-.39.03-.78.06-1.17,0-.04.06-.47.04-.49.13.12-.65.3-.2.47s1.58-.18,2.09-.22c.86-.06,1.72-.08,2.57-.05.66.03,1.29.09,1.93.25.04.01.47.16.49.14-.01,0-.23-.48-.28-.48.03,0,.02,1.07.02,1.14-.02,1.97-.22,3.92-.57,5.85-.19,1.05-.38,2.03.18,3.02s1.65,1.43,2.79,1.49c2.1.11,4.24,0,6.34,0,.23,0,1.15.15,1.32,0,.13-.1.91,1.15-.28-.35-.65-.82-.19-.23-.24-.04-.16.64-.02,1.69-.05,2.43-.04,1.18-.13,2.36-.26,3.54-.03.28-.3,1.15-.19,1.4.29.6.25-.7.65-.48-.09-.05-.64.15-.74.17-2.13.45-4.4.51-6.56.2-1.19-.17-2.84.28-3.04,1.73s-.42,2.94-.63,4.41c-.1.74-.21,1.47-.31,2.21-.02.15-.37,1.69-.31,1.76-.18-.17.88-.15-.09-.19-.73-.03-1.48.06-2.21.06s-1.47-.01-2.21-.05c-.41-.02-.82-.05-1.23-.08-.16-.01-.33-.03-.49-.04-.4-.05-.33-.02.23.09l.64,1.09c-.64-1.52-.62-3.33-.7-4.95-.07-1.52.16-3.32-.23-4.8-1.01-3.8-5.93-3.38-9-3.49-.62-.02-1.26-.03-1.87-.11-.18-.02-.73-.25-.9-.19.47,1.18.67,1.41.6.7,0-.22,0-.44,0-.66,0-1.42.05-2.74.37-4.12.37-1.57-.21.03-.46-.24.05.06,1.23-.23,1.36-.25.92-.13,1.85-.23,2.78-.31,1.99-.16,3.99-.17,5.99-.08,3.18.14,3.18-4.8,0-4.95-2.61-.12-5.21-.04-7.81.26s-5.3.39-6.32,3.15c-.74,1.99-.86,4.23-.86,6.33,0,1.18,0,2.34.65,3.36s1.83,1.5,2.96,1.72c2.13.41,4.31.31,6.47.45.35.02.71.05,1.06.1.08.01.45.15.52.09.02-.02-.79-.77-.35-.71,0,0,.06,2.88.07,3.12.09,2.25.07,4.78.9,6.89,1.14,2.89,4.75,2.6,7.34,2.62,2.91.02,6.29.05,7.45-3.18.43-1.19.48-2.55.66-3.8.23-1.63.46-3.27.7-4.9l-3.04,1.73c3.21.47,6.63.57,9.79-.33,3.51-1,3.33-5.08,3.52-8.09.17-2.76.63-6.75-2.65-7.89-1.46-.5-3.18-.28-4.7-.28-1.64,0-3.32.1-4.95-.02l1.25.34-.27-.14.89.89-.12-.22.34,1.25c-.08.21-.09.17-.01-.11.05-.24.09-.48.14-.72.09-.48.16-.96.23-1.44.13-.94.25-1.88.32-2.83.13-1.66.37-3.61-.21-5.21-1.17-3.23-5.7-3.33-8.57-3.22-1.43.06-2.99.13-4.38.47-2.17.52-3.07,2.25-3.26,4.33-.25,2.81-.03,5.64-.19,8.45-.18,3.18,4.77,3.17,4.95,0Z"/>
      </g>
    </g>
  </g>
</svg>