<?xml version="1.0" encoding="UTF-8"?>
<svg id="Layer_2" data-name="Layer 2" xmlns="http://www.w3.org/2000/svg" viewBox="0 0 62.15 40.24">
  <defs>
    <style>
      .cls-1 {
        fill: #f9ecd7;
      }

      .cls-2 {
        fill: #107ba0;
      }
    </style>
  </defs>
  <g id="Ebene_2" data-name="Ebene 2">
    <g>
      <path class="cls-1" d="M20.2,3.4c-6.18,0-7.18,1.97-10.48,4.05s-5.24,5.97-6.31,9.71c-1.36,4.76.19,10.12,3.51,13.8s7.24,6.1,13.17,6.09h23.47c3.28.07,5.15-.21,8.56-2.04,2.46-1.32,2.96-2.52,4.78-4.81s2.3-5.34,2.34-8.28c.04-3.28-1.29-6.66-2.95-9.49-1.44-2.46-6.9-8.63-12.03-9.03h-24.06Z"/>
      <path class="cls-2" d="M20.2.4C5.98.88-5.25,17.02,2.56,30.09c6.29,10.52,17.19,9.96,27.8,9.96,9.42,0,21.03,1.9,27.63-6.37,5.05-6.33,5.35-14.14,1.68-21.31-2.73-5.35-8.44-11.04-14.62-11.87-8.05-1.07-16.74-.11-24.86-.11-3.86,0-3.87,6,0,6,7.45,0,14.92-.17,22.37,0,5.23.12,9.67,4.48,11.93,9,4.59,9.19-.87,18.42-10.96,18.65-7.46.17-14.96.08-22.42,0-6.62-.07-13.03-3.5-14.81-10.37C4.1,15.14,11.93,6.68,20.2,6.4c3.85-.13,3.87-6.13,0-6Z"/>
    </g>
  </g>
</svg>