<?xml version="1.0" encoding="UTF-8"?>
<svg id="Layer_2" data-name="Layer 2" xmlns="http://www.w3.org/2000/svg" viewBox="0 0 42.35 40.07">
  <defs>
    <style>
      .cls-1 {
        fill: #f9ecd7;
      }

      .cls-2 {
        fill: #107ba0;
      }
    </style>
  </defs>
  <g id="Ebene_2" data-name="Ebene 2">
    <g>
      <path class="cls-1" d="M20.34,3.08c-3.84.65-7.18,1.97-10.48,4.05s-5.24,5.97-6.31,9.71c-1.36,4.76.19,10.12,3.51,13.8s8.23,5.73,13.17,6.09,7.78.31,12.15-2.04c2.46-1.32,2.96-2.52,4.78-4.81s2.3-5.34,2.34-8.28c.04-3.28-1.29-6.66-2.95-9.49-1.66-2.82-4.85-10.35-16.2-9.03Z"/>
      <path class="cls-2" d="M19.54.19C7.4,2.58-3.58,13.06,1.1,26.37c3.82,10.87,17.45,15.79,28.08,12.86,11.21-3.08,16.02-15.28,11.46-25.65C36.77,4.77,30.45-.75,20.34.08c-3.82.32-3.85,6.32,0,6,6.14-.51,10.07,1.42,13.09,6.62,4.13,7.11,4.39,16.97-4.57,20.34-7.37,2.78-18.28-.16-21.69-7.61-1.9-4.17-1.1-8.74,1.29-12.55,2.7-4.3,7.94-5.98,12.67-6.91,3.79-.75,2.18-6.53-1.6-5.79Z"/>
    </g>
  </g>
</svg>