<?xml version="1.0" encoding="UTF-8"?>
<svg id="Layer_2" data-name="Layer 2" xmlns="http://www.w3.org/2000/svg" viewBox="0 0 128.39 126">
  <defs>
    <style>
      .cls-1 {
        fill: #d18652;
      }

      .cls-2 {
        fill: #a55d2d;
      }

      .cls-3 {
        fill: #824216;
      }
    </style>
  </defs>
  <g id="Ebene_2" data-name="Ebene 2">
    <g>
      <path class="cls-3" d="M125.73,41.33c-1.29-1.33-3.04-2.84-3.73-4.38-.83-1.82-.79-4.61-1.25-6.59-.82-3.54-1.91-6.9-4.85-9.25s-6.35-2.76-9.9-3.24c-4.25-.57-7.7-.27-11.12-2.94l1.54,5.84c.78-4.26,4.1-7.65,2.12-12.19s-7.95-5.69-12.09-7.11c-3.66-1.26-7.99-2.29-11.66-.54-3.39,1.62-4.34,5.33-5.61,8.58l7.38-4.19c-5.5-1.06-10.54-1.84-16.18-1.25-5.95.62-11.74,1.98-17.58,3.19-2.24.47-4.48.89-6.73,1.3-1.09.2-2.48.73-3.59.65,1.48.1.36-.28-.4-.5-3.81-1.13-8.5.78-11.3,3.37-.59.55-1,1.38-1.61,1.87,2.03-1.62-1.09.02-1.46.2-2.34,1.13-4.75,2.1-7.02,3.38C6.64,19.79,1.14,22.76.21,27.73c-1.91,10.24,9.56,18.47,17.17,22.67l-2.97-5.18c-.44,14.67-1.09,29.35-.9,44.03.07,5.66-.65,12.94,1.49,18.27,2.82,7.04,10.43,6.76,16.86,7.12l-4.24-1.76c2.87,3.61,6.34,6.34,9.84,9.3,2.14,1.81,3.88,3.52,6.79,3.78,2.74.25,6.06-.63,8.75-1.18,4.58-.94,8.49-4.16,7.07-9.37-1.04-3.84-4.76-7.61-7.28-10.62l-4.24,10.24c4.43,0,9.1,2.32,13.49,3.19,4.99.99,10.07,1.6,15.13,2.07,3.72.35,8.73,1.65,12.15-.37,4.22-2.5,3.25-7.31,2.96-11.44l-6,6c2.52,0,5.05.04,7.57.08l-6-6c.22,2.94,1.01,4.95,2.96,7.2,1.41,1.62,3.85,2.02,5.84,1.54,3.24-.78,6.6-2.06,9.94-2.18,3.02-.11,5.95.13,8.74-1.37,5.81-3.14,6.89-10.76,7.6-16.67,1.74-14.54,1.34-30.09.67-44.7l-2.97,5.18c5.65-3.17,10.49-8.48,6.06-15.02-4.3-6.36-14.7-.36-10.36,6.06.6-2.58.02-3.05-1.76-1.4-1.77.99-3.07,3.13-2.97,5.18.54,11.79.12,23.59-.12,35.38-.06,2.84-.11,5.69-.47,8.51-.18,1.44-.37,6.1-1.46,6.92-.56.42-3.11-.13-3.87-.13-1.52,0-2.63.23-4.13.6-2.7.67-5.38,1.41-8.08,2.06l5.84,1.54.56,1.29c-.24-3.28-2.55-5.94-6-6-2.52-.05-5.05-.08-7.57-.08-3.08,0-6.23,2.76-6,6,.14,1.98.53,4.12.28,6.08l2.97-5.18c2.09-.32,2.38-.49.88-.5-.9-.06-1.8-.13-2.71-.2-1.51-.12-3.02-.24-4.54-.39-3.4-.32-6.79-.71-10.16-1.31-6.22-1.11-12.16-3.96-18.46-3.95-5.54,0-7.47,6.4-4.24,10.24,1.25,1.49,3.83,3.93,4.31,5.77l.6-4.62c1.16-2.74-1.64-.3-3.27-.73-1.08-.28-2.86-2.38-3.77-3.14-2.43-2.03-4.61-5.6-7.28-7.09-1.48-.83-2.98-.78-4.61-.91-1.06-.06-2.11-.13-3.17-.21-1.73-.57-2.05-.27-.97.91-1.08-2.28-.45-6.94-.52-9.37-.47-16.21.31-32.45.8-48.65.06-2.05-1.18-4.19-2.97-5.18-3.13-1.72-6.73-3.71-9.07-6.48-.86-1.02-2.28-2.97-2.35-4.38.15,3.02,1.67.53,3.17-.38,3.41-2.08,7.21-3.33,10.64-5.33,1.54-.9,2.09-1.77,3.39-2.88-.39.33.39-.12.53-.1,3.29.48,5.45.38,8.77-.22s6.87-1.3,10.29-2.04c8.48-1.83,16.01-2.98,24.57-1.34,3.45.66,6.12-.96,7.38-4.19.27-.67.53-1.35.76-2.03-3.07.98-3.65,1.43-1.75,1.35.91.67,3.34.98,4.36,1.34.87.31,1.74.62,2.61.93,1.62.87,1.74-.07.36-2.8-.75-.12-2.15,5.51-2.26,6.09-.36,1.94-.19,4.49,1.54,5.84,2.93,2.28,5.74,4.81,9.46,5.42,3.06.5,8.82-.33,11.54,1.32,2.52,1.53,2.39,7.1,3.03,9.98.93,4.17,3.88,6.65,6.82,9.67,5.39,5.55,13.87-2.94,8.49-8.49Z"/>
      <path class="cls-2" d="M28.79,23.12c-4.54.47-8.01,4.27-8.07,8.84-.28,21.43-2.22,52.64-.58,71.72.1,1.16.52,2.34,1.34,3.17,1.02,1.04,2.6,1.23,4.05,1.36,26.94,2.25,54.09-1.03,81.05.91,2.4.17,5.1.29,6.87-1.33.98-.9,1.5-2.18,1.9-3.45,1.71-5.32,2.02-10.99,2.1-16.58.26-18.7,1.64-39.28-2.88-57.43-.37-1.47-.78-3.01-1.83-4.12-1.3-1.38-3.3-1.81-5.18-2.11-9.21-1.49-20.96-1.65-30.24-2.67-15.64-1.72-30.82-.15-48.54,1.68Z"/>
      <path class="cls-1" d="M33.06,36.1l-.7,8.94c-5.79,10.58-7.98,25.76-8.07,40.49,0,.82,0,5.62-.57,6.21-.23.25-1.03.25-2.11.35-.2,1.47-.33,3.16.71,4.21.31.31.7.54.99.87,1.38,1.56-.04,4.59,1.64,5.82.51.38,1.18.45,1.79.64,1.97.62,3.25,2.47,4.47,4.14,4.29,5.87,6.47,6.41,11.8,11.34.37.34.75.69,1.23.84.49.15,1.03.07,1.54-.02,2.5-.42,4.99-.84,7.49-1.26.98-.16,1.45-1.29.9-2.11-3.38-4.99-3.99-5.61-7.5-9.75,11.54,5.96,25.44,7.18,38.63,8.12.46.03,1.02.02,1.25-.38.13-.21.11-.48.09-.73-.35-5.01-.7-10.02-1.05-15.03-.3-4.24-.59-8.55.31-12.71,1.06-4.93,4.05-9.73,9.08-11.26,2.02-.61,4.22-.53,6.18.26,4.31,1.76,5.19,5.8,5.52,9.6.42,4.79.16,9.64-.76,14.36-.1.51-.22,1.04-.53,1.45-.41.54-1.09.8-1.74,1-2.62.82-5.48,1.22-7.65,2.91-2.16,1.69-3.1,5.37-.96,7.1,4.04-.96,8.06-2.01,12.05-3.15,1-.29,2.04-.61,2.77-1.35.74-.77,1.03-1.86,1.28-2.89.65-2.65,1.3-5.3,1.95-7.96.91-3.7,1.82-7.49,1.47-11.28-.67-7.13-5.61-13-10.04-18.62-4.43-5.62-8.77-12.23-7.92-19.34l-63.54-10.82ZM96.6,60.65c8.55-2.16,16.77-5.61,24.3-10.18,1.73-1.05,2-3.45.58-4.9-5.17-5.26-9.39-10.34-14.76-16.31-.2-1-.95-2.68-2.33-3.61-2.49-1.68-3.88-1.29-5.67-1.05-2.6-1.51-6.62-4.2-8.09-5.44.08-1.54.88-3.32,1.65-4.65.77-1.33,1.25-2.74.77-3.63-.32-.59-1.47-1.23-2.1-1.46-2.32-.83-4.64-1.66-6.96-2.49-2.43-.87-5.77-1.4-6.89-.49-.82.67-1.53,3.3-2.12,4.65-1.24-.12-2.83-.76-4.21-.96-9.43-1.38-18.89,1.42-28.24,3.29-2.77.55-6.96,1.29-9.72,1.8-2.03-.68-2.33-1.23-5.42-.34-.88.25-3.22,1.82-3.36,2.67-1.55.97-3.52,1.92-5.47,2.76-3.87,1.66-7.53,3.8-10.87,6.35-.66.5-1.34,1.07-1.59,1.86-.23.72-.07,1.52.13,2.25.86,3.15,2.61,6,5.06,8.16,6.15,5.43,13.74,9.21,21.77,10.89l63.54,10.82ZM35.97,95.04c-.95-1-2.9-3.56-5.05-5.7-1.31-11.11,0-20.51,2.36-31,.83,3.56,2.09,6.85,3.84,9.55,1.18,1.81,2.51,3.58,3.06,5.67.58,2.17.28,4.46-.03,6.68-.78,5.59-1.56,11.18-2.33,16.77-.6-.64-1.21-1.29-1.85-1.96Z"/>
    </g>
  </g>
</svg>