<?xml version="1.0" encoding="UTF-8"?>
<svg id="Layer_2" data-name="Layer 2" xmlns="http://www.w3.org/2000/svg" viewBox="0 0 118.1 114.45">
  <defs>
    <style>
      .cls-1 {
        fill: #663659;
      }

      .cls-2 {
        fill: #936187;
      }

      .cls-3 {
        fill: #72476a;
      }
    </style>
  </defs>
  <g id="Ebene_2" data-name="Ebene 2">
    <g>
      <path class="cls-1" d="M118.1,51.49c-.04-4.81-.12-10-1.84-14.54-.97-2.55-2.54-4.63-3.24-7.04-.92-3.16-1.01-6.71-1.79-9.94-1.42-5.88-4.55-9.9-10.7-11.17-6.65-1.38-13.61-1.61-20.37-2.06l5.79,7.6c1.64-4.7,1.93-10.65-4.14-12.2-5.55-1.42-13.34,1.09-18.78,2.29-3.05.67-3.03.68-5.7-.57-2.95-1.38-6.04-2.64-9.21-3.42-7.33-1.8-10.37,2.1-15.09,7.08l4.24-1.76c-3.84.31-7.67.87-11.5.66-3.22-.18-6.42-.51-9.66-.22-5.3.48-9.14,5.35-7.04,10.7l1.54-5.84c-7.7,6.94-4.28,16.93-5.6,25.99-.65,4.47-3.48,8.67-4.32,13.28-.92,5.11-.96,10.13-.05,15.25.82,4.58,3.5,8.79,3.51,13.37.01,4.99.06,10.12.63,15.08,1.36,11.85,13.54,10.83,22.81,11.17l-4.24-1.76c9.32,8.22,19.99,11.31,32.3,10.98,6.05-.16,12.16-.99,18.06-2.34s11.14-4.23,16.92-6.35,11.81,1.64,17.1-2.88c4.77-4.07,5.49-11.55,6.03-17.4.31-3.35.3-4.46,1.42-7.51.89-2.44,1.51-4.91,1.93-7.48,1.01-6.28.98-12.63.98-18.98,0-7.72-12-7.73-12,0,0,6.28.3,12.8-1.16,18.95-.61,2.58-1.96,4.88-2.64,7.4-.94,3.5-.33,7.5-1.02,11.11-.18.91-.51,4.14-1.1,4.59-.7.55-3.88-.14-4.73-.19-4.42-.26-6.98-.2-10.86,2.02-5.46,3.11-11.53,4.75-17.68,5.89s-12.43,1.56-18.6.96c-6.68-.65-11.2-3.35-16.46-7.26-2.98-2.22-6.38-1.81-9.96-2.01-1.21-.07-2.62-.32-3.81-.24-.16.01-2.92-.57-1.6.37.85.6.05.33.19-.55.15-.95-.15-2.2-.2-3.16-.19-3.47-.27-6.94-.31-10.41-.02-1.73.19-3.62-.24-5.32-.5-2.02-1.73-3.94-2.37-5.93-2.97-9.18-.99-16.32,2.56-24.84,1.61-3.86,1-8.87,1.11-12.99.09-3.44-.87-7.84,1.88-10.31,1.44-1.3,2.27-3.98,1.54-5.84-.13-.37-.12-.2.06.52l-2.76,3.59c-1.7.3-1.86.4-.47.3.92-.04,1.84-.04,2.77-.02,1.23.02,2.46.07,3.69.16,3.59.26,6.88.05,10.48-.26,3.17-.27,5.34-.38,7.71-2.63,2.93-2.79,2.14-3.72,5.98-2.4,4.45,1.53,8.24,4.5,13.14,4.07,3.21-.28,6.36-1.41,9.52-2,1.6-.3,3.21-.57,4.83-.77,1.29-.16,5.3.57,2.37-.8l-2.76-3.59c-.45-1.52-.44.15-.83,1.27-1.37,3.92,2.17,7.36,5.79,7.6,4.89.32,9.82.56,14.68,1.23,2.66.37,3.48.11,4.6,2.3.99,1.93,1.12,5.04,1.47,7.17.38,2.34.38,4.76,1.37,6.93.81,1.78,2.26,3.16,2.9,5.08,1.05,3.12.88,6.77.91,10.03.07,7.72,12.07,7.74,12,0Z"/>
      <path class="cls-3" d="M19.46,13.47c-4.54.47-8.01,4.27-8.07,8.84-.28,21.43-2.22,52.64-.58,71.72.1,1.16.52,2.34,1.34,3.17,1.02,1.04,2.6,1.23,4.05,1.36,26.94,2.25,54.09-1.03,81.05.91,2.4.17,5.1.29,6.87-1.33.98-.9,1.5-2.18,1.9-3.45,1.71-5.32,2.02-10.99,2.1-16.58.26-18.7,1.64-39.28-2.88-57.43-.37-1.47-.78-3.01-1.83-4.12-1.3-1.38-3.3-1.81-5.18-2.11-9.21-1.49-20.96-1.65-30.24-2.67-15.64-1.72-30.82-.15-48.54,1.68Z"/>
      <path class="cls-2" d="M110.98,39.87c-1.68-5.04-5.99-10.33-10.52-13.12-7.67-4.74-13.41-6.65-22.4-6,1.07-3.22,1.09-5.8,2.92-10.17.31-.75.59-1.71.02-2.29-.42-.43-1.1-.42-1.69-.37-5.56.42-11.08,1.34-16.48,2.75-1.09.28-2.2.59-3.32.49-1.33-.12-2.53-.79-3.71-1.39-3.44-1.76-7.1-3.08-10.87-3.93-.54-.12-1.12-.23-1.64-.05-.48.16-.84.54-1.19.91-1.61,1.7-3.21,3.39-4.82,5.09-.67.71-1.38,1.44-2.31,1.72-.93.28-1.94.07-2.9-.13-5.09-1.04-10.31-1.45-15.5-1.23-.58.03-1.22.08-1.64.49-.63.62-.42,1.68-.12,2.51,1.67,4.67,4.51,8.93,8.19,12.26l-1.65,1.06c-10.93,7.51-17.02,21.5-15.06,34.61,1.38,9.25,6.34,17.57,11.83,25.14,5.28,7.27,11.5,14.36,19.85,17.71,12.03,4.83,32.47,2.05,44.5-2.8,5.46-2.2,15.04-8.45,18.7-13.05,10.94-13.76,10.94-21.58,10.94-38.59,0-3.17-.26-9.04-1.13-11.62ZM84.35,41.6c-3.81,5.31-12.06,2.17-17.31,3.23-.66.12-1.11.17-1.95.34-.12,1.02-.22,1.56-.27,2.59-.16,1.27-.27,2.55-.73,3.77-.71,1.89-1.96,3.59-3.74,4.59-5.17,2.91-12.36-2.7-16.65-5.18-2.92-1.69-2.25-2.53-5.07-.65-2.06,1.37-4.17,3.75-6.83,3.79-3.22.06-5.01-1.95-5.98-4.81-.94-6.28-.7-13.32,2.91-18.33,0-.01.01-.03.02-.04.82,3.39,1.24,6.39,1.88,9.98.21,1.25.3,2.01.37,2.86.06.8-.02,3.82.91,4.04.44.1,4.59-3.24,4.99-3.48,2.57-1.57,4.32-2.01,6.99-.42,2.37,1.41,4.6,2.94,7.06,4.22,2.39,1.25,5.96,3.98,7.75.26,1.44-3.01-.59-6.45,2.94-8.51,2.64-1.55,6.33-1.4,9.79-1.21.26.05.52.07.79.04,1.43.08,2.81.15,4.04.08.84-.05,2.79-.12,2.76-.46-.02-.28-.94-.86-1.15-1.06-1.04-.96-1.46-1.33-2.53-2.53-1.04-1.28-1.43-1.77-1.93-2.43-1.97-2.57-2.43-3.83-4.39-6.4,3.89,1.5,7.5,3.57,11.16,5.7.66.49,1.31.99,1.98,1.48,2.43,2.34,4.61,5.17,2.19,8.55Z"/>
    </g>
  </g>
</svg>