<?xml version="1.0" encoding="UTF-8"?>
<svg id="Layer_2" data-name="Layer 2" xmlns="http://www.w3.org/2000/svg" viewBox="0 0 146.39 77.14">
  <defs>
    <style>
      .cls-1 {
        fill: #f9ecd7;
      }

      .cls-2 {
        fill: #663659;
      }

      .cls-3 {
        fill: #936187;
      }
    </style>
  </defs>
  <g id="Ebene_2" data-name="Ebene 2">
    <g>
      <path class="cls-2" d="M146.12,35.04c-.28-5.63-2.17-10.76-8.07-12.44-6.5-1.85-14.33-1.59-21.04-1.96-15.05-.83-30.13-.72-45.19-.59l5.18,2.97c-5.34-11.98-22.73-17.21-31.21-5.41l10.97,4.62c3.05-9.55-3.12-17.74-11.72-21.09-9.3-3.62-24.2,1.38-22.84,13.38l7.6-5.79c-8.59-3.5-21.19.44-25.53,8.96s1.27,18.9,9.2,22.76v-10.36c-8,4.49-9.6,13.39-5.32,21.11l3.59-8.81c-12.91,3.87-15.57,21.36-5.94,30.28s24.73,4.31,27.04-8.4l-10.97,1.43c5.74,11.85,29.77,13.69,34.15-.56l-5.79,4.4c21.82.76,43.65,1.3,65.48,1,8.41-.12,20.33,1.59,26.09-6.04s4.56-20.42,4.33-29.47c-.2-7.71-12.2-7.74-12,0,.11,4.28.23,8.58-.03,12.86-.21,3.41.05,8.89-3.66,10.19-3.51,1.23-9.04.37-12.78.43-4.52.07-9.04.11-13.56.11-17.96.02-35.92-.45-53.86-1.08-2.68-.09-5.03,1.94-5.79,4.4-.25.81-4.29,1.05-5.45,1.01-3.09-.13-5.33-.34-6.76-3.31-2.17-4.48-10.06-3.56-10.97,1.43-2.13,11.78-15.86-4.26-6.33-7.12,3.76-1.13,5.49-5.37,3.59-8.81-1.15-2.07-1.18-3.46,1.01-4.69,3.73-2.09,4.09-8.37,0-10.36-2.47-1.2-6.07-4.03-4.35-7.34,1.88-3.62,8.39-3.69,11.44-2.45,3.39,1.38,8-2.17,7.6-5.79-.49-4.34,13.38-2.95,11,4.52-2.2,6.88,7.22,9.83,10.97,4.62,1.21-1.68,4.84-.47,6.29.19,2.47,1.13,3.1,2.75,4.2,5.22.83,1.86,3.25,2.99,5.18,2.97,11.12-.1,22.25-.18,33.37.11,5.26.14,10.51.36,15.76.71,2.96.19,5.91.43,8.86.7,1.03.1,2.79-.07,3.72.37,1.16.55.46-1.49.58,1.09.38,7.69,12.38,7.73,12,0Z"/>
      <path class="cls-1" d="M21.49,31.33c-.46,9.32-.15,17.46-.12,28.01,0,.85-.05,1.79.5,2.43.59.69,1.61.77,2.52.81,34.74,1.37,68.25,2.7,103,1.74,3.06-.08,6.39-.29,8.67-2.32,1.91-1.69,2.67-4.31,3.15-6.82,1.25-6.61,1.08-13.4.91-20.13-.06-2.2-.28-4.72-2.08-5.99-.95-.67-2.15-.84-3.3-.97-36.75-4.08-73.75-.68-109.35-2.44-1.26-.06-3.93,1.51-3.9,5.68Z"/>
      <g>
        <path class="cls-3" d="M72.65,29.76c-.1-2.51-1.05-4.42-2.29-6.75-1.41-2.64-4.21-4.55-8.44-5.61s-8.73-.51-10.94,3.26c1.08-2.42.19-7.66-1.5-9.69-1.69-2.03-4.84-3.62-7.32-4.53-3.02-1.12-6.06-.6-9.11.44-3.05,1.04-5.68,4.55-4.85,7.66-3.7-1.85-7.52-1.28-11.39.2-3.86,1.48-7.91,4.45-7.93,8.59-.01,3.11,1.09,7.3,3.43,9.36,1.14,1,2.56,1.93,4.18,2.61-.11.06-.23.12-.34.19-1.8,1.08-3.4,2.63-4.12,4.6-.98,2.66-.23,5.71,1.3,8.11-1.09.22-2.14.63-3.06,1.28-1.79,1.26-2.96,3.23-3.7,5.28-1.31,3.65-.73,6.36.84,9.9,1.57,3.54,3.57,5.27,8.58,6.6,4.4.92,9.07-2.18,10.56-6.42.24-.69.4-1.41.5-2.13.46,1.07.99,2.13,1.77,3,1.92,2.14,4.97,2.77,7.82,3.09,2.6.29,5.28.42,7.8-.31s4.87-2.43,5.79-4.89c.74-1.97.48-4.22-.37-6.14-.02-.04-.04-.08-.06-.12,3.09.45,6.36-.29,8.92-2.09.67-.47,1.3-1.02,1.78-1.68,1.69-2.38,1.85-6.55,1.06-9.61.46-.12.93-.25,1.4-.41,2.82-.93,4.87-1.8,6.84-4.57,2.36-3.32,2.98-6.36,2.87-9.21Z"/>
        <path class="cls-2" d="M74.15,29.76c-.18-2.99-1.39-6.09-3.13-8.53-1.61-2.24-3.97-3.67-6.52-4.62-5.14-1.9-11.63-1.88-14.82,3.28l2.74,1.16c1.15-2.81.46-6.55-.72-9.23-1.42-3.23-4.87-5.07-7.97-6.37-3.94-1.65-8.59-1.46-12.41.54-3.19,1.67-5.39,5.33-4.57,8.94l2.2-1.69c-4.08-1.94-8.41-1.55-12.54.05-3.09,1.19-6.23,3.07-7.92,6.02s-1.22,6.6-.16,9.66c1.27,3.66,3.88,6.08,7.41,7.61v-2.59c-2.44,1.37-4.58,3.51-5.33,6.26-.81,2.98.06,6.12,1.63,8.69l.9-2.2c-3.82.86-6.31,3.69-7.67,7.24-1.53,3.97-.81,7.79.92,11.56,2.52,5.51,9.53,8.97,15.33,6.53,3.74-1.57,6.37-4.99,6.98-8.98l-2.74.36c1.38,3.16,3.61,5.2,6.94,6.14s7.01,1.22,10.34.72c2.99-.45,5.88-1.88,7.65-4.4,1.92-2.73,1.82-6.39.41-9.33l-1.3,2.26c4.05.52,8.96-.76,11.62-4.04,2.45-3.02,2.45-7.63,1.58-11.24l-1.05,1.85c3.43-.92,6.57-2.28,8.77-5.18s3.55-6.64,3.44-10.45c-.06-1.93-3.06-1.93-3,0,.09,3.16-.88,6.1-2.79,8.63-1.79,2.37-4.43,3.37-7.21,4.11-.8.21-1.24,1.06-1.05,1.85.64,2.64.82,6.39-1.06,8.61-2.17,2.57-6.1,3.27-9.26,2.87-1.23-.16-1.73,1.36-1.3,2.26,1.04,2.15.89,4.87-.73,6.68s-4.12,2.59-6.51,2.72-5.16-.09-7.58-.74c-2.72-.73-4.22-2.26-5.33-4.81-.5-1.14-2.55-.88-2.74.36-.52,3.44-2.75,6.42-6.2,7.36-2.79.76-6.46-.49-8.53-2.47-2.19-2.09-3.59-5.86-3.51-8.84.1-3.87,2.48-7.84,6.38-8.71.94-.21,1.38-1.41.9-2.2-1.15-1.89-1.93-4.17-1.33-6.38.55-2.02,2.19-3.48,3.95-4.47.9-.51,1.06-2.13,0-2.59-2.69-1.17-4.93-2.81-5.96-5.65-.84-2.29-1.48-5.28-.2-7.52s3.78-3.73,6.13-4.64c3.3-1.29,6.91-1.93,10.23-.35,1.18.56,2.5-.36,2.2-1.69-.62-2.74,1.86-5.19,4.26-5.97,1.64-.54,3.34-.93,5.08-.86,1.64.07,3.17.65,4.64,1.35,2.24,1.07,4.68,2.43,5.57,4.88.74,2.03,1.19,4.65.35,6.72-.66,1.62,1.88,2.55,2.74,1.16,2.44-3.96,7.67-3.29,11.43-1.9,4.26,1.57,7.17,5.69,7.45,10.25.12,1.92,3.12,1.93,3,0Z"/>
      </g>
      <path class="cls-2" d="M13.22,34.95c.14,1.22,1.01,1.52,2.06,1.69.99.17,1.99.29,2.99.41,2.51.3,5.21.53,7.72.14,2.34-.36,4.41-1.08,6.12-2.76.97-.96,1.74-2.06,2.33-3.29.74-1.52.75-3.06.51-4.71-.12-.8-1.13-1.24-1.85-1.05-.86.24-1.17,1.04-1.05,1.85.32,2.14-.83,3.89-2.31,5.32-.6.58-1.23.95-2.04,1.17-.46.13-.92.24-1.38.35-.23.05-.46.1-.69.15-.09.02-.57.08-.14.03-2.22.24-4.53.07-6.75-.16-.6-.06-1.29-.15-1.79-.22-.34-.05-.68-.1-1.02-.16-.13-.02-.26-.06-.4-.08-.39-.04-.46-.34.26.26l.44,1.06v-.02c-.1-.8-.62-1.5-1.5-1.5-.74,0-1.6.69-1.5,1.5h0Z"/>
      <path class="cls-2" d="M44.25,30.72c-.13.11-.15.12-.03.04-.06.04-.12.09-.18.13-.15.1-.3.2-.45.29-.27.16-.56.31-.85.43.19-.08-.21.08-.25.09-.18.07-.36.12-.55.18-.34.1-.69.18-1.03.25,0,0-.48.06-.23.04-.15.02-.31.03-.46.04-.34.02-.68.02-1.02-.03.27.04-.03-.02-.13-.04-.12-.03-.24-.07-.36-.11.35.11-.09-.05-.16-.09-.21-.11-.42-.24-.62-.37-.56-.36-1.01-.73-1.47-1.26-.03-.04-.27-.36-.13-.15-.09-.13-.18-.26-.27-.4-.15-.24-.27-.49-.39-.75.15.31-.02-.05-.04-.1-.04-.11-.08-.23-.12-.34-.08-.26-.16-.52-.23-.78-.12-.45-.22-.9-.35-1.35-.55-1.85-3.44-1.06-2.89.8.35,1.19.59,2.38,1.14,3.51.76,1.55,2.09,2.76,3.57,3.62,2.98,1.73,7.13.62,9.62-1.52.61-.53.54-1.58,0-2.12-.61-.61-1.51-.53-2.12,0h0Z"/>
      <path class="cls-2" d="M28.54,62.44v-3.24c.01-1.02.09-2.07,0-3.08-.13-1.27-.92-1.98-1.94-2.64-.92-.6-1.85-1.19-2.78-1.79l-.76,2.8c-.1,0,.11,0,.14.02-.02-.01.18.1.22.13.25.15.47.33.71.49.5.35,1.04.62,1.61.85,1.13.45,2.41.62,3.62.51,2.53-.22,4.76-1.43,6.6-3.13.54-.5.56-1.41.12-1.97-.49-.62-1.24-.71-1.94-.39-3.4,1.56-6.72,3.4-8.18,7.04-.3.75.33,1.65,1.05,1.85.86.24,1.54-.29,1.85-1.05,1.1-2.74,4.3-4.09,6.8-5.25l-1.82-2.36c-1.39,1.29-3.17,2.26-5.06,2.28-.9,0-1.78-.16-2.57-.62-1.06-.6-1.85-1.39-3.15-1.42-1.55-.03-1.96,2.02-.76,2.8.79.51,1.59,1.02,2.38,1.53.26.17.73.39.88.59-.02-.02,0-.09-.02-.11.05.13,0,.46,0,.59,0,1.85-.01,3.7-.02,5.56s2.99,1.93,3,0h0Z"/>
      <path class="cls-2" d="M56.49,41.27c-.9-.22-1.81-.45-2.68-.76-.2-.07-.4-.15-.6-.22-.43-.17.25.12-.17-.07-.09-.04-.17-.08-.26-.12-.42-.2-.82-.42-1.21-.68-.07-.05-.14-.09-.2-.14,0,0-.3-.23-.15-.11s-.11-.09-.14-.12c-.08-.07-.16-.14-.23-.21-.15-.14-.3-.29-.44-.44-.07-.08-.14-.16-.2-.23-.1-.12-.07-.1,0,.01-.23-.34-.43-.68-.62-1.05.06.11.07.17.01.02-.03-.1-.07-.19-.1-.29-.07-.22-.11-.43-.15-.66-.13-.78-1.13-1.28-1.85-1.05-.84.27-1.19,1.01-1.05,1.85.35,2.03,1.74,3.7,3.38,4.87s3.82,1.8,5.84,2.3c.76.19,1.66-.24,1.85-1.05s-.23-1.65-1.05-1.85h0Z"/>
      <path class="cls-2" d="M44.21,49.08c-.1-.37-.2-.74-.27-1.11-.03-.16-.07-.33-.09-.49-.01-.07-.02-.14-.03-.21.02.16.02.15,0-.03-.04-.38-.06-.76-.06-1.14,0-.14,0-.28.02-.43,0-.09.02-.19.03-.28-.03.2-.03.22,0,.05.06-.27.11-.54.19-.81.05-.15.1-.3.16-.45-.14.36.07-.11.1-.18.06-.1.12-.21.18-.31.04-.07.35-.45.11-.17.21-.24.42-.46.67-.66l-2.12-2.12c-1.25,1.02-2.17,2.53-2.5,4.11-.39,1.85-.1,3.72.77,5.39.36.7,1.39.96,2.05.54.71-.46.93-1.31.54-2.05-.03-.05-.26-.55-.13-.24-.07-.16-.13-.33-.18-.5s-.1-.34-.14-.51c-.01-.06-.1-.61-.06-.26-.03-.31-.05-.62-.04-.93,0-.18.02-.35.04-.53-.05.36.04-.17.06-.23.04-.16.08-.31.13-.47.02-.07.21-.55.06-.21.11-.26.24-.51.39-.75.08-.14.18-.27.27-.4-.21.3.1-.11.15-.17.22-.24.45-.46.7-.67.61-.5.56-1.61,0-2.12-.65-.6-1.47-.53-2.12,0-1.17.94-1.94,2.43-2.19,3.89-.3,1.77-.06,3.52.42,5.24.21.76,1.07,1.3,1.85,1.05s1.27-1.03,1.05-1.85h0Z"/>
      <path class="cls-2" d="M28.44,64.48c-.25-1.11-.07-2.28-.03-3.4s-.1-2.36-.38-3.5c-.55-2.21-1.71-4.25-3.29-5.88-1.22-1.27-3.11.34-2.36,1.82,1.08,2.13,3.59,2.81,5.81,2.54,2.39-.29,4.69-1.09,6.89-2.03.74-.32.91-1.41.54-2.05-.45-.77-1.31-.86-2.05-.54-1.62.7-3.35,1.23-5.08,1.57-1.36.26-2.89.21-3.51-.99l-2.36,1.82c1.33,1.37,2.21,3.07,2.61,4.94.45,2.14-.15,4.35.33,6.51.18.79,1.09,1.25,1.85,1.05.82-.22,1.22-1.05,1.05-1.85h0Z"/>
      <path class="cls-2" d="M44.27,30.98c-2.92,1.59-6.82,2.51-9.6.13-.8-.69-1.74-.5-2.36.3-1.63,2.14-4.91,2.39-7.37,2.63-3.41.33-6.84.48-10.17-.47-1.86-.53-2.65,2.36-.8,2.89,3.97,1.13,8.12.92,12.18.45,3.36-.39,6.6-1.18,8.75-3.99l-2.36.3c3.88,3.32,9.02,2.64,13.24.34,1.69-.93.18-3.52-1.51-2.59h0Z"/>
      <path class="cls-2" d="M46.8,35.69c.06,2.4,1.73,4.26,3.58,5.59,1.69,1.22,3.67,1.96,5.6,2.7.73.28,1.68-.31,1.85-1.05.2-.86-.26-1.54-1.05-1.85-.41-.16-.83-.32-1.24-.48-.1-.04-.21-.08-.31-.13s-.27-.11-.07-.03c-.21-.09-.41-.18-.61-.27-.8-.37-1.59-.77-2.32-1.27-.18-.12-.36-.25-.53-.38.12.09.1.08,0,0s-.2-.17-.3-.26c-.31-.28-.58-.59-.87-.89-.12-.12.11.17-.05-.06-.06-.09-.12-.18-.18-.27-.12-.18-.21-.38-.31-.57-.08-.15.06.21-.02-.06-.03-.1-.07-.2-.09-.31s-.05-.21-.07-.31c.04.27.01.02.01-.11-.02-.78-.68-1.54-1.5-1.5s-1.52.66-1.5,1.5h0Z"/>
      <path class="cls-2" d="M43.72,49.43c.22.17-.19-.19-.22-.23-.04-.04-.37-.46-.21-.24-.11-.15-.21-.31-.3-.48-.05-.09-.1-.19-.14-.29.05.11.04.08-.03-.09-.28-.88-.39-1.29-.34-2.17,0-.08,0-.16.02-.24-.02.14-.02.12.01-.07.04-.2.09-.39.15-.58.03-.08.06-.16.09-.25-.07.16-.07.16,0,0,.08-.15.16-.31.25-.46.05-.07.09-.15.15-.22-.1.13-.1.13,0,0,.12-.13.24-.25.36-.37.13-.11.13-.11,0-.01.07-.05.14-.1.21-.15.15-.09.3-.17.45-.25.71-.34.95-1.41.54-2.05-.47-.73-1.29-.9-2.05-.54-1.97.94-3.06,3.06-3.18,5.17-.06,1.1.15,2.25.56,3.26.47,1.16,1.17,2.05,2.17,2.81.62.48,1.71.12,2.05-.54.42-.8.13-1.54-.54-2.05h0Z"/>
    </g>
  </g>
</svg>