<?xml version="1.0" encoding="UTF-8"?>
<svg id="Layer_2" data-name="Layer 2" xmlns="http://www.w3.org/2000/svg" viewBox="0 0 113.35 123.74">
  <defs>
    <style>
      .cls-1 {
        fill: #b76b37;
      }

      .cls-2 {
        fill: #c97c47;
      }

      .cls-3 {
        fill: #f99b4e;
      }
    </style>
  </defs>
  <g id="Ebene_2" data-name="Ebene 2">
    <g>
      <path class="cls-1" d="M113.1,80.58c-.61-2.39-1.78-4.06-3.36-5.9l1.76,4.24c.39-17.3,1.71-36.27-3.42-53.06-2.6-8.51-9.45-9.63-17.29-10.53-8.31-.95-16.69-1.15-25.01-1.99l4.24,1.76c-3.83-3.3-7.65-6.6-11.48-9.9C55.94,2.96,53.23-.01,49.5,0s-6.39,2.97-8.95,5.22c-3.75,3.3-7.5,6.6-11.24,9.91l4.24-1.76c-4.01.34-8.01.72-12.01,1.12-3.73.38-7.62.44-11,2.27-5.95,3.24-7.81,9.08-7.93,15.45-.14,7.99-.43,15.97-.68,23.96-.06,1.79.19,3.9-.17,5.65-.14.68-.93,2.17-1.25,3.2-1,3.2-.33,6.14.43,9.33,1.61,6.79.42,14.68.77,21.7.33,6.65.88,13.84,8.68,15.63,3.71.85,7.83.76,11.61.92,3.96.17,7.47,1.23,11.31,2.15,6.91,1.65,13.89,2.93,20.87,4.26,3.83.73,7.67,1.47,11.48,2.31,3.25.72,6.59,2.03,9.9,2.37,7.28.76,14.5-8.16,19.26-12.7l-4.24,1.76c7.99.45,15.14.39,18.28-8.32,1.41-3.92,1.94-8.15,2.27-12.28.28-3.56,1.75-6.43,2.21-9.97.43-3.24-3.06-5.97-6-6-3.59-.04-5.58,2.8-6,6-.16,1.2-1.44,2.48-1.76,3.71-.29,1.09-.21,2.38-.28,3.46-.21,3.25-.51,6.3-1.26,9.47-.69,2.91-1.63,2.27-4.5,2.1-3.87-.23-5.65.25-8.44,2.77-2.13,1.92-4.24,3.85-6.44,5.7-.74.62-2.14,1.46-2.65,2.19l-.81.65c1.9-.22,2.26-.43,1.07-.65-.53-.89-4.84-1.25-5.98-1.51-2.97-.68-5.96-1.28-8.95-1.87-10.3-2.02-20.71-3.7-30.82-6.58-5.55-1.58-11.48-.23-17.04-1.55,1.69.4.04,1.66.5-.04.33-1.24-.22-3.51-.28-4.8-.13-2.92-.2-5.85-.23-8.77-.06-5.38.37-10.49-1.04-15.68-.61-2.23.05-2.68.8-4.77,1.07-2.99.64-6.67.74-9.84.18-5.75.37-11.5.53-17.26.07-2.5.02-5.02.17-7.51.19-3.32.76-4.03,4.04-4.62,5.18-.93,11.51.04,16.48-1.63,2.66-.9,4.78-3.43,6.86-5.26.94-.83,1.87-1.65,2.81-2.48,1.14-1.01,4.39-2.93,4.92-4.33l.7-.62c-2.29-.39-2.41.02-.37,1.24.69.86,2,1.72,2.87,2.47,2.39,2.06,4.77,4.14,7.17,6.19,4.46,3.78,9.81,3.4,15.46,3.78,6.07.41,12.35.49,18.33,1.62,2.27.43,1.84.1,2.81,2.03.73,1.45.84,3.65,1.13,5.21.56,3.02.96,6.06,1.24,9.12.64,7.01.74,14.07.68,21.11-.03,3.36-.1,6.72-.17,10.07-.02,1.06-.22,2.53-.08,3.62.26,2.05,1.57,3.05,2.03,4.85,1.9,7.48,13.48,4.31,11.57-3.19Z"/>
      <path class="cls-2" d="M16.72,20.98c-4.54.47-8.01,4.27-8.07,8.84-.28,21.43-2.22,52.64-.58,71.72.1,1.16.52,2.34,1.34,3.17,1.02,1.04,2.6,1.23,4.05,1.36,26.94,2.25,54.09-1.03,81.05.91,2.4.17,5.1.29,6.87-1.33.98-.9,1.5-2.18,1.9-3.45,1.71-5.32,2.02-10.99,2.1-16.58.26-18.7,1.64-39.28-2.88-57.43-.37-1.47-.78-3.01-1.83-4.12-1.3-1.38-3.3-1.81-5.18-2.11-9.21-1.49-20.96-1.65-30.24-2.67-15.64-1.72-30.82-.15-48.54,1.68Z"/>
      <path class="cls-3" d="M18.72,103.81c-6.71-12.63-8.27-20.02-11.89-30.67-.21-.63-1.01-2.79-1.39-4.73.36-1.2.7-1.61,1.09-2.4,1.73-3.45,3.48-6.93,5.95-9.94,2.44-2.97,5.38-6.76,7.84-9.72,2.46-2.96,3.58-3.51,4.6-5.56-.51-2.67-2.36-7.99-2.75-10.48.45-.99,2.02-2.72,2.85-3.45,7.51-6.64,15.03-13.27,22.57-19.87.54-.48,1.17-1.02,1.93-1.28.82.41,1.35.79,1.91,1.27,12.09,10.42,24.17,20.84,36.26,31.26.93.81,1.95,1.45,2.68,2.35.18,1.28.5,2.94.56,4.28.2,4.72.13,9.46-.2,14.18-.08,1.18-.12,2.49-.15,3.84.62.78,1.39,1.21,2.01,1.88,4.29,4.69,8.57,9.39,12.86,14.08.88.97,1.56,1.57,2.08,2.87-.14.99-.45,1.96-.75,2.67-5.49,13.16-16.54,23.41-27.88,32.52-.45.36-.77.6-1.29,1.13-.74.04-1.63-.28-2.33-.48-15.55-4.53-41.83-7.04-56.55-13.74Z"/>
      <path class="cls-2" d="M86.48,44.2s-.05-.04-.07-.06c-1.13.52-2.26,1.04-3.38,1.59-1.69.83-3.3,1.8-4.86,2.84-2.71,2.57-7.07,6.47-9.93,8.87-1.87,2.52-3.63,5.1-4.87,7.95,1.89-.76,3.89-1.17,5.87-1.89.81-.3,1.58-.68,2.34-1.09,2.81-2.33,7.13-6.14,9.8-8.63.26-.35.53-.7.77-1.08,1.83-2.8,3.1-5.58,4.34-8.49Z"/>
      <path class="cls-2" d="M65.39,82.34c-1.92-4.58-3.68-9.23-5.27-13.95-.59-.59-1.58-1.67-2.11-2.29-1.99-2.33-4.21-4.17-6.25-5.83-1.29-1.09-2.49-1.99-3.61-2.96-3.47-3.01-6.84-6.11-10.27-9.16-3.81-2.1-6.41-3.41-10.25-5.45,0,0-.08.05-.09.05,3.4,4.24,6.29,6.94,9.94,11.14,1.91,2.2,4.2,3.9,6.38,6.17.11.1.56.61.67.71,2.58,2.26,7.01,6.67,9.76,8.71.86,2.19,1.35,3.05,2.77,7.13,2.33,6.69,3.93,9.24,6.75,15.78,2.29,5.88,6.41,14.73,9.77,19.72-.9-6.26-2.25-14.38-4.6-20.37-1.55-3.71-2.25-5.61-3.6-9.39Z"/>
    </g>
  </g>
</svg>