<?xml version="1.0" encoding="UTF-8"?>
<svg id="Layer_2" data-name="Layer 2" xmlns="http://www.w3.org/2000/svg" viewBox="0 0 126.52 116.89">
  <defs>
    <style>
      .cls-1 {
        fill: #d18652;
      }

      .cls-2 {
        fill: #a55d2d;
      }

      .cls-3 {
        fill: #824216;
      }
    </style>
  </defs>
  <g id="Ebene_2" data-name="Ebene 2">
    <g>
      <path class="cls-3" d="M126.24,51.85c-1.13-4.76-3.09-9.07-5.47-13.34-2.13-3.83-1.99-8.48-2.87-12.77s-1.81-8.41-5.26-11.17c-3.85-3.07-9.27-3.2-13.97-3.73l4.24,1.76C93.44,3.75,82.34.41,69.55.04c-11.8-.34-23.32,1.62-31.6,10.7l4.24-1.76c-3.97.33-7.94.71-11.9,1.12-3.49.35-7.16.38-10.37,1.97-5.58,2.77-8.24,8.1-8.48,14.14-.61,15.06-.96,30.17-1.18,45.24l2.97-5.18c-5.79,2.57-10.81,7.27-12.23,13.65-1.41,6.36-1.14,13.48-.47,19.87s4.41,10.25,10.45,12.77c4.76,1.98,13.7,1.76,14.78-4.92l-5.79,4.4c2.05.23,4.02-.19,6-.68l-6.78-2.76c2.49,3.85,7.19,4.11,11.37,3.64,4.53-.51,8.72-3.78,13.07-3.75l-5.18-9.03c-6.91,12.62,20.35,19.95,20.69,3.5l-7.6,5.79c2.63.72,5.25,1.36,7.94,1.78,2.16.33,5.52-.03,7.53.84s2.66,3.29,4.54,4.4c1.38.82,3.07.86,4.62.97,3.3.23,7.03.59,9.33-2.28,2.72-3.39,2.22-8.44,2.25-12.51l-6,6c2.62,0,5.24.02,7.86.06l-6-6c-.59,7.93,4.13,10.14,11.31,8.48,3.98-.92,7.28-1.58,11.31-1.83,3.28-.2,6.3-1.24,8.59-3.67,4.8-5.07,5.04-14.44,5.27-20.97.3-8.5.42-17.02.46-25.52l-4.4,5.79c5.32-2.02,11.05-3.94,10.27-10.86-.86-7.59-12.86-7.67-12,0,1.58-1.59,1.76-2.08.53-1.47-.66.25-1.33.5-1.99.76-2.52.96-4.39,2.96-4.4,5.79-.05,9.98.25,20.25-.74,30.18-.15,1.53-.32,6.43-1.54,7.52-1.03.92-3.09.15-4.71.27-2.23.17-4.38,1.05-6.53,1.62-1.08.28-6.37.7-3.84,1.39l4.19,4.19c.25-.51.33-1.07.22-1.67.25-3.27-2.95-5.95-6-6-2.62-.04-5.24-.06-7.86-.06-3.26,0-5.98,2.75-6,6,0,1.53.55,4.45-.14,5.84l5.18-2.97c-.52.04-5.09-.03-5.08-.11,0-.17,4.44,2.79,1.24-.71-.94-1.03-2-1.93-3.2-2.64-5.42-3.24-12.99-2.52-19.02-4.18-3.82-1.05-7.52,1.9-7.6,5.79,3.01-1.41,3.54-2.33,1.58-2.78-2.82-.84-2.79.94.1,5.34,2.18-3.98-.54-9-5.18-9.03-3.51-.02-5.42.57-8.57,2.05-2.52,1.18-6.11,2.66-8.87,1.57l3.59,2.76-.21-.33c-1.49-2.3-4.1-3.41-6.78-2.76-.93.33-1.87.42-2.81.25-2.35-.27-5.4,2.04-5.79,4.4,2.09-1.56,2.41-2.6.94-3.13-.62-.32-1.23-.67-1.82-1.05-1.17-1.11-.51-.49-.86-1.99-.72-2.99-.55-5.87-.2-8.88.28-2.38-.22-5.43.67-7.65,1.08-2.68,3.9-4.03,6.36-5.12,1.89-.84,2.94-3.24,2.97-5.18.21-14.78.28-29.71,1.17-44.47.19-3.14.89-4.1,4.02-4.59,3.67-.58,7.45-.76,11.15-1.1,4.11-.37,5.94-.61,9.02-3.37,2.82-2.53,5.42-4.07,9.15-4.98,6.53-1.59,14.23-1.35,20.83-.26,3.5.58,6.9,1.58,10.02,3.29s5.12,4.47,8.01,6.05c2.65,1.45,7.3,0,9.49,1.9,1.58,1.38,1.87,8.43,2.15,10.41.54,3.78.9,6.23,2.77,9.58,2.03,3.65,3.65,7.04,4.62,11.13,1.78,7.51,13.35,4.33,11.57-3.19Z"/>
      <path class="cls-2" d="M25.54,16.59c-4.54.47-8.01,4.27-8.07,8.84-.28,21.43-2.22,52.64-.58,71.72.1,1.16.52,2.34,1.34,3.17,1.02,1.04,2.6,1.23,4.05,1.36,26.94,2.25,54.09-1.03,81.05.91,2.4.17,5.1.29,6.87-1.33.98-.9,1.5-2.18,1.9-3.45,1.71-5.32,2.02-10.99,2.1-16.58.26-18.7,1.64-39.28-2.88-57.43-.37-1.47-.78-3.01-1.83-4.12-1.3-1.38-3.3-1.81-5.18-2.11-9.21-1.49-20.96-1.65-30.24-2.67-15.64-1.72-30.82-.15-48.54,1.68Z"/>
      <path class="cls-1" d="M120.45,53.44c-.72-3.49-2.03-6.83-3.77-9.94-7.28-13.01-15.02-28.21-29.07-34.2-5.93-2.53-12.49-3.15-18.94-3.29-7.92-.17-16.38.53-22.68,5.33-3.16,2.4-5.53,5.67-7.78,8.94-5.6,8.17-10.67,16.7-15.17,25.53-.41.8-.82,1.64-.82,2.54,0,.87.39,1.69.78,2.47,1.31,2.6,2.76,5.17,4.83,7.21s4.86,3.5,7.77,3.41c.13,1.45.28,2.99.44,4.58-2.47-1.09-5.45-.92-7.77.45-1.27.75-2.34,1.82-3.66,2.47-1.02.49-2.15.71-3.25.96-3.21.72-6.39,1.8-9.08,3.69-2.69,1.89-4.86,4.69-5.47,7.92-.49,2.59.02,5.32-.54,7.82-.61,2.72-.52,5.51.13,8.22.33,1.38-.09,3.07.44,4.52.56,1.55,2.06,2.52,3.47,3.37,1.99,1.22,4.03,2.46,6.52,2.41.89-.01,1.78-.29,2.53-.78.24-.16.47-.36.58-.63.05-.13.06-.27.07-.42.23.05.47.07.71.08,1.25.06,2.51-.13,3.7-.54.05.12.11.24.21.33.21.19.5.25.77.3,6.06,1.08,12.1-1.79,17.32-5.06.57-.36,1.19-.8,1.3-1.47.02-.1.02-.2.01-.3.06.05.12.11.18.17.52.4,1.09.74,1.68,1.02-1.01.45-1.93,1.07-2.36,2.19-.25.65-.23,1.4.15,1.98.8,1.23,2.27.88,3.49,1.23.66.19,1.24.58,1.91.72,1.09.22,2.18-.26,3.18-.74.3-.14.62-.3.77-.59.09-.18.11-.4.12-.6.03-.6.03-1.2.04-1.79,3.49.99,7.02,1.83,10.63,2.08,2.16.15,4.41.12,6.34,1.1,2.36,1.2,3.13,2.88,4.47,4.44.56.17,5.63.35,6.21.24,1.02-1.41.93-4.01.95-6.74.08-12.58.14-23.8.22-36.37,7.78-.48,14.14-1.84,20.79-4.15.54,11.13,0,21.65-1.38,32.67-3.99,1.56-7.09,2.24-10.92,2.94-.4.07-.7.42-.71.83-.04,1.6-.21,3.16-.32,4.81-.02.37.31.67.67.59,5.39-1.07,11.3-2.72,16.43-4.55.48-.17.98-.36,1.31-.74.36-.41.48-.97.58-1.5,2.2-11.87,2.45-24.11.73-36.06-.07-.5-.14-1.04.08-1.5.28-.59.94-.87,1.55-1.1,2.59-.98,5.19-1.97,7.78-2.95.62-.24,1.29-.5,1.67-1.05.5-.71.39-1.66.21-2.51ZM101.75,56.74c-.02.71-.07,1.51-.62,1.97-.28.24-.65.34-1,.43-2.76.74-5.52,1.48-8.28,2.22-1.8.48-3.63.97-5.49.84-.47-.03-.97-.11-1.35-.39-.5-.36-.72-.98-.92-1.56-2.12-6.23-4.24-12.45-6.37-18.68,1.94-.94,4.1-2.32,7.12-3.51,3.11-1.22,4.66-1.82,6.87-4.33.24-.28.52-.59.89-.59.27,0,.52.17.73.33,2.64,1.98,5.05,4.27,7.17,6.79.32.38.64.78.84,1.24.28.65.31,1.37.34,2.08.14,4.38.16,8.77.07,13.15Z"/>
    </g>
  </g>
</svg>