<?xml version="1.0" encoding="UTF-8"?>
<svg id="Layer_2" data-name="Layer 2" xmlns="http://www.w3.org/2000/svg" viewBox="0 0 86.16 36.36">
  <defs>
    <style>
      .cls-1 {
        fill: #507291;
      }

      .cls-2 {
        fill: #294860;
      }
    </style>
  </defs>
  <g id="Ebene_2" data-name="Ebene 2">
    <g>
      <path class="cls-1" d="M38.1,33.06c-1,0-15.01-.12-15.99-.1-4.72.06-9.43.13-14.15.19-.62,0-1.28,0-1.81-.35-.75-.5-1-1.54-1.17-2.48-1.05-5.64-1.69-14.03-1.83-20.53-.04-1.71,1.13-3.17,2.69-3.36,6.12-.77,19.83-2.06,24.89-2.07,10.22-.02,20.15-.54,27.06-.65,7.69-.11,16.26-.67,20.7-.04.89.13,3.06.23,3.67.95.48.57.57,1.4.63,2.18.53,6.8-.06,14.78-.48,21.59-.07,1.06-.17,2.18-.77,3.02-.47.66-1.15,1.25-1.92,1.35-7.69.97-15.47-.13-21.73-.03-4.95.08-12.32.4-19.79.34Z"/>
      <path class="cls-2" d="M38.1,30.06c-7.1-.06-14.2-.13-21.3-.03-2.11.03-7.95.91-8.93-.51-1.54-2.25-1.08-8.1-1.28-10.82-.17-2.29-1.4-8.22.68-9.45,1.73-1.02,5.96-.65,7.97-.84,12.51-1.19,25.05-1.22,37.61-1.59,6.83-.2,13.69-.53,20.52-.45,1.34.02,2.69.05,4.03.17,1.96.18,2.04.07,2.5,1.98.85,3.55.06,8.22-.11,11.83-.1,2.04.02,4.31-.37,6.31-.58,2.93-1.62,3.35-4.6,3.45-4.28.15-8.55-.17-12.82-.32-7.95-.28-15.93.31-23.89.28-3.86-.02-3.87,5.98,0,6,9.44.04,18.85-.48,28.29-.08,6.95.3,17.49,2.25,18.82-6.8.69-4.67.69-9.64.76-14.36.05-3.31.84-8.79-1.23-11.72-3.31-4.68-15.07-2.72-19.75-2.58-16.58.47-33.23.33-49.75,1.89-5,.47-13.48-.34-14.89,5.97-.82,3.7.06,8.26.38,11.99s.25,8.68,1.73,12.15c1.59,3.72,4.57,3.64,8.16,3.6,4.19-.06,8.37-.15,12.56-.15,4.98,0,9.95.06,14.93.1,3.86.03,3.87-5.97,0-6Z"/>
    </g>
  </g>
</svg>