<?xml version="1.0" encoding="UTF-8"?>
<svg id="Layer_2" data-name="Layer 2" xmlns="http://www.w3.org/2000/svg" viewBox="0 0 167.27 83.39">
  <defs>
    <style>
      .cls-1 {
        fill: #f9ecd7;
      }

      .cls-2 {
        fill: #507291;
      }

      .cls-3 {
        fill: #294860;
      }
    </style>
  </defs>
  <g id="Ebene_2" data-name="Ebene 2">
    <g>
      <g>
        <path class="cls-3" d="M167.01,33.87c-.45-7.92-4.32-12.08-12.21-12.96-9.52-1.06-19.15-1.46-28.72-1.77-18.73-.6-37.47-.29-56.2-.17l6,6c-.11-6.73,1.72-20.94-6.2-24.33-3.91-1.68-9.49.3-13.38,1.21-5.13,1.2-10.19,2.71-15.15,4.48-4.66,1.66-9.25,3.55-13.72,5.65-3.98,1.86-7.29,3.39-8.64,7.9-2.93,9.78-1.32,20.95-1.26,30.99l7.6-5.79c-7.41-1.69-15.1-.86-20.26,5.25-4.6,5.45-6.23,13.01-3.62,19.73,3.45,8.84,12.53,14.77,22.09,13.02,10.56-1.93,14.97-11.78,15.79-21.49l-6,6c4.92.17,9.85.33,14.77.49l-5.18-2.97c7.5,10.78,23.3,11.15,31.1.62l-5.18,2.97c22.62.61,45.25.96,67.88.62,8.61-.13,20.08,1.33,26-6.4s4.77-20.01,4.5-29.06c-.23-7.7-12.23-7.74-12,0,.18,6.26.71,13.06-.98,19.17-.78,2.82-1.71,3.57-4.64,3.96s-6.02.21-8.96.27c-13.62.25-27.24.25-40.86.08-6.45-.08-12.89-.2-19.34-.35-3.53-.08-7.11-.36-10.64-.26s-4.23,1.28-6.58,3.39c-1.89,1.7-4.3,1.64-6.71.98-2.25-.61-2.57-1.82-4.17-3.26-2.25-2.03-5.09-1.78-7.93-1.88-3.7-.12-7.39-.25-11.09-.37-3.44-.12-5.74,2.86-6,6-.35,4.12-1.86,9.57-6.83,9.82-4.45.22-8.69-4.16-8.33-8.6.42-5.24,4.75-7.34,9.98-6.15,3.75.85,7.62-1.74,7.6-5.79-.04-7.45-.67-14.97-.05-22.41.15-1.8.35-3.64.88-5.38l-1.08,1.33c.87-.44,1.75-.88,2.63-1.31,3.25-1.57,6.55-3,9.93-4.27,6.56-2.47,13.3-4.49,20.15-5.96.36-.08,4.79-.58,4.92-.95-3.11-2.35-4.27-2.47-3.48-.36l.1,1.29c.39,3.99.3,8.12.36,12.12.05,3.23,2.71,6.02,6,6,14.77-.1,29.55-.31,44.32-.1,7.26.1,14.53.31,21.78.67,3.63.18,7.27.41,10.9.68,2.11.16,8.01-.37,8.13,1.64.43,7.68,12.44,7.73,12,0Z"/>
        <path class="cls-3" d="M54.76,19.54c0,1.83.01,3.65.03,5.48l6-6c-7.66,0-15.33-.05-22.99-.24,1.01,3.73,2.02,7.45,3.03,11.18,3.01-1.43,6.06-2.6,9.24-3.58,1.45-.44,2.91-.86,4.36-1.29,1.57-.47,3.94-1.8,5.51-1.82l-4.24-1.76-.95-1.97c.56,7.66,12.57,7.72,12,0-.25-3.42-1.51-7.03-5.21-8.05-3.25-.9-6.66.93-9.7,1.85-5.86,1.78-11.52,3.63-17.07,6.26s-2.53,11.05,3.03,11.18c7.66.19,15.32.25,22.99.24,3.22,0,6.03-2.75,6-6-.02-1.83-.03-3.65-.03-5.48,0-7.72-12.01-7.73-12,0Z"/>
      </g>
      <path class="cls-1" d="M24.16,30.16c-.53,9.32-.17,17.46-.14,28.01,0,.85-.06,1.79.58,2.43.69.69,1.86.77,2.91.81,40.07,1.37,78.73,2.7,118.82,1.74,3.53-.08,7.37-.29,10.01-2.32,2.2-1.69,3.09-4.31,3.63-6.82,1.45-6.61,1.25-13.4,1.04-20.13-.07-2.2-.33-4.72-2.4-5.99-1.09-.67-2.48-.84-3.81-.97-42.39-4.08-85.07-.68-126.15-2.44-1.45-.06-4.54,1.51-4.49,5.68Z"/>
      <g>
        <path class="cls-2" d="M69.56,14.02c-.02-2.5-.4-6.75-2.19-7.89-.47-.3-1.51-.09-2.06,0-12.42,2.13-26.12,6.58-37.99,12.55-1.67.84-2.27.97-2.74,2.79-2.14,8.16-1.05,18.93-1.05,29.39-12.59-3.28-16.24,5.75-17.29,9.7-1.39,5.19,1.51,11.04,5.81,14.26,4.3,3.22,10.72,3.54,15.03.34,3.33-2.47,5.08-6.59,5.73-10.68.65-4.09.33-8.27.33-12.41-.02-8.6-1.1-15.89-.17-23.29.1-.78.51-1.54,1.14-2,.64-.48,1.62-.98,2.34-1.34,9.72-4.85,12.22-4.58,22.74-8.17,1.23-.42,1.57.96,1.57,2.26-.01,8.4.29,17.01.41,24.32-5.8-1.64-8.83-.41-12.54,3.16-1.26,1.21-2.18,4.17-2.61,5.87-.46,1.81-.25,3.74.28,5.53,2.04,6.94,6.78,9.09,14.14,9.06,1.86,0,3.68-.58,5.18-1.68,3.53-2.6,4.6-5.35,4.47-9.78-.41-14.11.17-27.89-.53-42Z"/>
        <path class="cls-3" d="M71.06,14.02c-.03-2.28-.2-4.72-1.11-6.84-.38-.9-.95-1.83-1.82-2.34-1.09-.63-2.47-.28-3.63-.08-6.07,1.07-12.06,2.59-17.92,4.48-6.15,1.98-12.19,4.37-18.01,7.17-2.03.98-4.4,1.73-5.23,4.02-.93,2.57-1.17,5.53-1.37,8.24-.55,7.38.06,14.8.07,22.19l1.9-1.45c-4.38-1.1-9.29-1.2-13.13,1.5-2.61,1.84-4.36,4.53-5.45,7.5-3.59,9.75,4.65,20.72,14.95,20.48,5.85-.13,10.41-3.84,12.6-9.13,2.49-6,1.83-12.8,1.74-19.15-.1-6.44-.85-12.89-.4-19.33.1-1.4-.02-2.81,1.26-3.63s2.71-1.43,4.07-2.07c2.2-1.03,4.44-1.96,6.74-2.74s4.66-1.43,6.99-2.13c1.53-.46,3.06-.93,4.57-1.43.28-.09.56-.19.85-.28.29-.1.59-.2.88-.3-.38-.32-.52-.33-.41-.05-.02.05.06.45.07.53.05.59,0,1.19,0,1.78.02,7.62.28,15.24.41,22.86l1.9-1.45c-3.16-.86-6.41-1.16-9.46.23-2.73,1.25-5.15,3.44-6.33,6.22-1.51,3.55-1.94,7.06-.66,10.77.92,2.66,2.41,5.04,4.71,6.7s5.09,2.29,7.85,2.53c3.85.34,7.2-.3,10.14-2.94,2.32-2.08,3.5-4.81,3.73-7.89.15-2.07-.02-4.17-.06-6.25-.04-2.31-.06-4.62-.06-6.92-.03-10.28.13-20.57-.37-30.85-.09-1.92-3.09-1.93-3,0,.39,7.98.38,15.96.37,23.95,0,4.03-.01,8.06.04,12.09.02,1.82.06,3.64.11,5.46.04,1.53.05,3.05-.38,4.53-.74,2.57-3.08,4.86-5.63,5.61s-5.66.34-8.12-.4c-4.91-1.47-8.21-7.21-6.91-12.24.36-1.39.8-2.81,1.51-4.05s2.04-2.25,3.25-3.01c2.67-1.68,5.54-1.45,8.48-.65.93.25,1.92-.47,1.9-1.45-.11-6.57-.32-13.13-.39-19.7-.02-1.59.04-3.19-.02-4.78-.05-1.14-.24-2.42-1.2-3.17-1.14-.89-2.36-.34-3.57.06-1.32.44-2.66.86-3.99,1.27-4.16,1.27-8.34,2.4-12.35,4.09-2.51,1.06-5.23,2.12-7.49,3.65-2.55,1.72-2.4,4.92-2.51,7.69-.24,6.21.45,12.41.5,18.62s.84,12.85-2.16,18.43c-2.6,4.85-7.86,6.96-13.12,5.33-4.82-1.49-8.71-6.5-8.95-11.55-.15-3.12,1.27-6.58,3.35-8.87,3.23-3.56,7.97-3.73,12.38-2.62.94.24,1.9-.45,1.9-1.45,0-5.94-.37-11.88-.26-17.82.05-2.7.18-5.42.61-8.1.18-1.13.36-2.33.74-3.42.29-.82.88-1.01,1.64-1.39,10.05-5.01,20.69-8.83,31.65-11.31,1.54-.35,3.09-.67,4.64-.96.72-.13,2.22-.7,2.79-.22.67.57.83,2.17.97,2.96.19,1.12.24,2.26.26,3.4.03,1.93,3.03,1.93,3,0Z"/>
      </g>
    </g>
  </g>
</svg>