<?xml version="1.0" encoding="UTF-8"?>
<svg id="Layer_2" data-name="Layer 2" xmlns="http://www.w3.org/2000/svg" viewBox="0 0 120.59 115.85">
  <defs>
    <style>
      .cls-1 {
        fill: #73737f;
      }

      .cls-2 {
        fill: #696872;
      }

      .cls-3 {
        fill: #aaaabc;
      }
    </style>
  </defs>
  <g id="Ebene_2" data-name="Ebene 2">
    <g>
      <path class="cls-2" d="M120.57,58.86c-.52-6.71-1.54-13.27-4.04-19.55-1.22-3.06-2.29-5.3-2.78-8.56-.59-3.95-1.11-8.24-2.73-11.92-2.51-5.74-7.48-7.18-13.25-7.96-3.63-.49-3.81-.35-6.28-1.8-2.99-1.75-6.2-3.15-9.41-4.43C70.13-.08,56.88-1.24,44.27,1.35c-6.35,1.3-13.29,3.63-18.75,7.22-2.54,1.68-5.05,1.19-8.01,1.98-3.12.83-5.83,2.69-7.83,5.2-3.33,4.17-2.49,9.23-4.21,13.36C2.58,36,.78,42.68.2,50.18c-.54,6.99-.02,14.18,1.7,20.98.79,3.12,2.85,6.33,3.35,9.42.48,2.93-.01,6.53.12,9.54.25,5.72.03,12.6,5.9,15.68,6.12,3.21,13.95.55,20.15,3.03,5.76,2.31,10.95,4.92,17.14,6.02,7.1,1.26,14.21,1.34,21.33.21,3.83-.61,7.57-1.56,11.2-2.92,3.21-1.21,6.48-3.62,9.72-4.44s7.08.64,10.35.48c3.53-.18,6.73-1.42,9.01-4.17,2.4-2.9,3.27-6.88,3.9-10.51.7-4.05-.03-8.89,1.02-12.76.54-1.98,2.82-6.28,3.69-9.25,1.21-4.11,1.89-8.34,1.78-12.63-.2-7.71-12.2-7.74-12,0,.15,5.66-1.6,10.99-3.87,16.12-2.42,5.48-1.33,11.31-2.55,17.15-.78,3.73-.3,4.12-3.94,3.97-2.47-.1-4.93-.4-7.4-.4-5.8,0-10.52,4.23-16.04,5.94-10.11,3.13-21.01,3.03-31.03-.42-4.91-1.69-8.82-5.05-14.06-5.35-2.98-.17-5.97-.22-8.95-.42-1.12-.07-2.5-.02-3.57-.27.55,1.25.73,1.4.55.47-.08-.72-.14-1.45-.17-2.17-.34-5.08.58-11.07-.63-15.99-.65-2.65-2.24-5.23-3.01-7.89-.83-2.87-1.4-5.81-1.68-8.78-.5-5.23-.31-10.67.62-15.84.5-2.74,1.19-5.55,2.23-8.13s2.88-4.85,3.21-7.73c.58-5.13-.18-6.69,5.66-7.38s10.01-4.53,15.38-6.51c9.74-3.6,20.6-4.29,30.72-1.86,5.35,1.28,10.64,3.29,15.39,6.08,2.08,1.22,3.53,2.31,5.95,2.7,2.2.35,5.72-.14,7.64,1,2.1,1.25,2.28,5.58,2.71,8.06.61,3.52.87,6.24,2.35,9.47,2.68,5.84,3.98,11.81,4.48,18.19.6,7.65,12.6,7.71,12,0Z"/>
      <path class="cls-1" d="M20.44,16.1c-4.54.47-8.01,4.27-8.07,8.84-.28,21.43-2.22,52.64-.58,71.72.1,1.16.52,2.34,1.34,3.17,1.02,1.04,2.6,1.23,4.05,1.36,26.94,2.25,54.09-1.03,81.05.91,2.4.17,5.1.29,6.87-1.33.98-.9,1.5-2.18,1.9-3.45,1.71-5.32,2.02-10.99,2.1-16.58.26-18.7,1.64-39.28-2.88-57.43-.37-1.47-.78-3.01-1.83-4.12-1.3-1.38-3.3-1.81-5.18-2.11-9.21-1.49-20.96-1.65-30.24-2.67-15.64-1.72-30.82-.15-48.54,1.68Z"/>
      <path class="cls-3" d="M114.57,58.86c-.28-3.83-.75-8.24-2.04-12.81-1.56-5.53-4.01-10.39-7.16-15.2-3.92-5.99-8.77-11.55-15.79-15.93-6.07-3.79-16.25-7.65-23.39-8.3-16.98-2.62-34.63,2.51-47.21,14.21-3.87,3.6-6.97,8-9.06,12.85-2,4.66-3.05,9.68-3.57,14.72-.72,7.06-.4,14.27,1.32,21.15,3.9,15.54,15.25,29.01,29.85,35.61,14.6,6.6,32.14,6.25,46.53-.8,14.39-7.06,25.38-20.65,29.41-36.16.79-3.05,1.33-6.21,1.1-9.36ZM25.74,71.34c-.4-.16-.65-.56-.86-.93-4.59-8.12-7.3-17.91-4.56-26.82,2.08-6.76,7.07-12.28,12.66-16.61,5.7-4.42,10.91-6.58,17.78-8.79,8.89-2.5,22.8-.6,32,8.92.97,1,2.11,2.3,1.52,3.57-.22.47-.6.85-1.03,1.15-19.64,13.78-37.78,25.23-55.78,39.04-.5.38-1.15.72-1.73.49ZM94.57,78.7c-7.27,10.73-19.43,17.26-32.37,17.88-3,.14-6.06.03-8.9-.94-4.92-1.67-16.49-4.46-19.5-10.98,19.07-12.5,38.42-27.85,56.79-41.35,1-.73,2.21-1.51,3.39-1.13.65.21,1.22.69,1.58,1.27,7,11.38,5.29,25.99-.97,35.24Z"/>
    </g>
  </g>
</svg>