<?xml version="1.0" encoding="UTF-8"?>
<svg id="Layer_2" data-name="Layer 2" xmlns="http://www.w3.org/2000/svg" viewBox="0 0 85.85 83.36">
  <defs>
    <style>
      .cls-1 {
        fill: #507291;
      }

      .cls-2 {
        fill: #294860;
      }
    </style>
  </defs>
  <g id="Ebene_2" data-name="Ebene 2">
    <g>
      <path class="cls-1" d="M3,35.74c-.04-1.71,1.13-3.17,2.69-3.36,6.12-.77,15.12-1.6,20.13-2.35.49-.07,1.01-.16,1.4-.49.75-.62.77-1.82.72-2.85-.28-5.7-.55-11.4-.83-17.1-.05-.97-.08-2.02.42-2.83.58-.95,1.7-1.28,2.73-1.51,7.28-1.68,14.76-2.36,22.2-1.99,1.01.05,2.06.13,2.95.65,2.03,1.19,2.49,4.1,2.6,6.62.32,7.3.9,11.81.19,19.12,7.69.05,13.6.09,21.29.14.9,0,1.91.06,2.52.79.48.57.57,1.4.63,2.18.53,6.8-.06,14.78-.48,21.59-.07,1.06-.17,2.18-.77,3.02-.47.66-1.2,1.05-1.92,1.35-5.44,2.24-11.47.53-17.21-.43-.72-.12-1.57-.18-2.06.41-.36.44-.38,1.1-.38,1.69,0,4.37.37,10.25.38,14.62,0,1.33-.07,2.85-1.02,3.7-.59.53-1.39.66-2.15.77-8.75,1.2-17.64,1.21-26.4.03-.68-.09-1.41-.22-1.9-.74-.54-.57-.63-1.46-.7-2.27-.42-4.91-.76-7.07-1.18-11.98-.16-1.91-.49-4.1-2.01-5.06-.85-.53-1.89-.54-2.87-.52-4.72.06-9.43.13-14.15.19-.62,0-1.28,0-1.81-.35-.75-.5-1-1.54-1.17-2.48-1.05-5.64-1.69-14.03-1.83-20.53Z"/>
      <path class="cls-2" d="M5.89,36.54c.38-2.49,9.83-2.29,11.83-2.52,2.86-.32,6.1-.37,8.9-1.11,7.01-1.85,4.02-12.46,3.77-17.63-.1-1.98-1.13-5.7.67-7.15.81-.66,4.48-.91,5.5-1.07,4.31-.68,11.66-2.23,15.91-.81,3.78,1.26,2.74,7.65,2.9,10.84.21,4.2.2,8.35-.16,12.55-.14,1.62,1.49,2.99,3,3,4.11.03,8.23.05,12.34.08,1.74.01,3.49.02,5.23.03,1.24,0,2.48.02,3.71.02.24,1.14.35,2.29.33,3.45.19,3.65-.04,7.34-.23,10.99-.1,1.9.16,4.42-.38,6.25-.94,3.2-3.53,3.37-6.5,3.33-4.28-.06-12.9-4.27-15.41,1.09-1.17,2.51-.42,6.31-.33,8.95.13,3.79,1.67,8.67-2.77,9.96-3.6,1.05-8.52.62-12.27.55-1.89-.03-3.78-.12-5.67-.27-3.38-.26-4.69-.33-5.55-3.86-1.13-4.64.49-11.35-2.99-15.2-4.11-4.56-12.86-1.16-18.15-1.95-2.41-.36-1.82-.16-2.2-2.67-.32-2.07-.54-4.16-.73-6.25-.35-3.8-.55-7.6-.65-11.42S-.1,31.87,0,35.74c.18,6.85.49,13.91,1.82,20.65,1.44,7.31,8.01,5.68,13.95,5.6,1.66-.02,3.67-.36,5.31-.07,2.7.48,2.65,1.76,2.91,4.29.36,3.42.62,6.85,1.03,10.26.8,6.65,6.62,6.3,12.2,6.67,4.09.27,8.19.29,12.28.05,3.17-.19,7.24,0,10.18-1.37,5.58-2.6,3.39-11.86,3.24-16.69-.02-.5-.44-4.57-.1-4.76-1.16.62,4.72,1.86,4.74,1.86,3.4.52,6.83.85,10.22.09,7.35-1.65,7.32-6.66,7.71-13.28.26-4.56.48-9.13.3-13.69-.11-2.63-.04-5.59-2.26-7.37-2.78-2.23-8.04-1.22-11.26-1.24-4.69-.03-9.37-.06-14.06-.09l3,3c.45-5.25.26-10.43-.02-15.68-.2-3.74.06-8.53-2.76-11.45C55.21-.81,49.15.05,45.02.23c-5.3.23-12.01.48-16.95,2.56-4.25,1.78-4.02,5.62-3.82,9.65.15,3.17.31,6.33.46,9.5.04.86.61,4.2.23,4.75s-1.12.61-2.16.74c-5,.64-10.02,1.1-15.03,1.69-3.85.46-6.99,1.51-7.65,5.82-.57,3.78,5.21,5.41,5.79,1.6Z"/>
    </g>
  </g>
</svg>