<?xml version="1.0" encoding="UTF-8"?>
<svg id="Layer_2" data-name="Layer 2" xmlns="http://www.w3.org/2000/svg" viewBox="0 0 110.33 109.86">
  <defs>
    <style>
      .cls-1 {
        fill: #444449;
      }

      .cls-2 {
        fill: #afafba;
      }

      .cls-3 {
        fill: #6e6e75;
      }
    </style>
  </defs>
  <g id="Ebene_2" data-name="Ebene 2">
    <g>
      <path class="cls-1" d="M109.58,46.36c-.87-4.2-3.3-6.73-7.37-7.93l4.4,5.79c-.3-6.04-.85-12.07-1.93-18.03-.85-4.7-1.72-10.15-5.98-13.01-4.01-2.69-9.08-2.59-13.71-3.23-5.44-.75-11.05-.81-16.56-1.22l5.79,4.4C72.75,3.74,64.5.53,55.94.05c-9.26-.52-15.99,2.59-18.31,12.06l5.79-4.4c-5.9.27-11.78.76-17.66,1.34-5.35.53-11.14.39-15.54,3.9-3.79,3.03-5.25,7.17-5.45,11.88-.27,6.32-.31,12.67-.51,19l2.97-5.18C2.22,41.84-.51,46.82.08,52.81c.51,5.16,1.86,12.44,5.38,16.41l-1.76-4.24c-.09,6.48-.13,12.97.16,19.44.26,5.83.23,12.46,6.4,15.21,5.14,2.29,11.64.79,16.63,2.18,3.04.84,4.84-.35,7.66-.67,1.58-.18,6.18.27,8.57.24l-5.79-4.4c2.74,7.96,7.5,13.94,16.62,12.71,4.46-.6,9.54-1.21,13.77-2.8,5.01-1.88,6.09-5.58,6.84-10.37l-5.79,4.4c6.55-.03,13.09.07,19.62.45,4.94.29,9.91.33,13.35-3.8,6.52-7.82,4.68-22.28,4.89-31.75l-1.76,4.24c6.31-6.9,5.96-14.99,4.7-23.73-1.11-7.61-12.67-4.38-11.57,3.19.43,2.95,1.08,6.63,0,9.52-.85,2.27-2.78,3.5-3.25,5.98-.96,5.08-.13,10.71-.49,15.87-.17,2.39-.16,5.61-1.31,7.75-.87,1.62,1.45.47-1.23.93-1,.17-2.31-.15-3.32-.21-6.54-.39-13.08-.48-19.62-.45-2.38.01-5.39,1.84-5.79,4.4-.17,1-.31,2.01-.44,3.01.95-.94.5-1-1.33-.19-2.08.11-4.3.9-6.36,1.28-4.19.76-4.58.36-5.96-3.65-.86-2.49-3.04-4.44-5.79-4.4-4.42.05-10.6.75-14.01.43-2.98-.28-6.01-.63-9.06-.81-.86-.05-4.33.12-4.82-.34,1.2,1.14.69-.54.79-1.14.41-2.43-.27-5.62-.32-8.08-.06-2.96-.07-5.92-.06-8.89.01-2.55.55-5.52-.46-7.91-.93-2.2-1.48-3.75-2.11-6.26-.42-1.65-1.7-4.51-1.04-6.16.8-1.98,3.27-2.43,4-4.82s.34-5.64.42-8.23c.09-3,.18-5.99.24-8.99.04-1.83-.58-4.58.96-5.94s6.14-1.02,8.09-1.21c5.88-.58,11.76-1.07,17.66-1.34,2.58-.12,5.14-1.77,5.79-4.4.5-2.03.31-2.58,2.11-3.26,1.24-.47,3.32-.06,4.63.01,3.64.2,6.11.43,6.7,4.27.42,2.71,3.36,4.23,5.79,4.4,4.18.31,8.37.52,12.54.87,2.93.24,6.62,0,9.38,1.05,1.8.68,1.53.89,2.06,3.2.4,1.76.73,3.54,1.02,5.32.69,4.32.98,8.69,1.19,13.05.13,2.7,1.78,5.01,4.4,5.79l-1.01-.45c1.56,7.56,13.13,4.36,11.57-3.19Z"/>
      <path class="cls-3" d="M18.26,15.81c-4.21.44-7.43,3.96-7.48,8.19-.26,19.86-2.06,48.79-.54,66.48.09,1.08.48,2.17,1.24,2.94.94.96,2.41,1.14,3.75,1.26,24.97,2.09,50.14-.95,75.13.85,2.22.16,4.73.27,6.37-1.23.91-.83,1.39-2.02,1.77-3.19,1.59-4.93,1.87-10.19,1.95-15.37.24-17.34,1.52-36.4-2.67-53.23-.34-1.37-.73-2.79-1.69-3.81-1.21-1.28-3.06-1.67-4.8-1.95-8.54-1.38-19.43-1.53-28.02-2.48-14.5-1.6-28.57-.14-44.99,1.56Z"/>
      <path class="cls-2" d="M95.85,81.1c-.29-1.99-1.78-3.54-2.92-5.2-1.14-1.65-1.96-3.92-.87-5.61,1.13-1.75,3.58-1.86,5.55-2.56,3.54-1.26,5.83-4.88,6.56-8.57.73-3.69.18-7.5-.37-11.22-.15-.99-.33-2.04-1.03-2.76-.62-.63-1.52-.86-2.38-1.04-1.92-.4-3.9-.65-5.67-1.5-1.77-.85-3.32-2.46-3.46-4.42-.22-3.3,3.52-5.89,3.29-9.2-.13-1.84-1.47-3.34-2.74-4.68-1.67-1.76-3.34-3.52-5.02-5.28-2.68-2.82-3.36-4.46-7.02-3.14-1.31.47-4.73,1.95-5.96,2.6-1.23.65-3.49-1.04-4.51-1.99-1-.93-.9-2.5-1.2-3.83-.56-2.56-2.77-4.51-5.21-5.48-2.44-.96-5.12-1.1-7.74-1.23-3.71-.18-8.15-.02-10.16,3.11-1.89,2.94-1.21,7.5-4.25,9.22-5.71,3.23-8.4-4.16-12.02-2.93-3.57,1.97-6.88,4.41-9.82,7.24-2.18,2.09-4.3,4.94-3.54,7.87.47,1.83,1.97,3.18,3.16,4.64s2.15,3.48,1.35,5.19c-1.23,2.62-4.99,2.14-7.81,2.8-3.14.73-5.67,3.56-6.06,6.75-.24,1.94.24,3.88.72,5.77.52,2.07,1.04,4.13,1.56,6.2.24.94.48,1.9,1.06,2.68,2.33,3.16,8.56,1.74,10.02,5.38,1.03,2.58-1.4,5.11-2.39,7.71-1.05,2.77-.38,5.96,1.08,8.54,1.46,2.58,3.64,4.66,5.79,6.71,1.81,1.73,3.96,3.58,6.46,3.36,2.13-.19,3.79-1.85,5.55-3.07,1.76-1.22,4.34-1.99,5.91-.52.68.64.99,1.56,1.28,2.44,1.18,3.65,2.87,7.9,6.62,8.75,1.34.3,2.73.1,4.08-.13,3.66-.61,7.29-1.33,10.91-2.16,1.01-.23,2.07-.51,2.79-1.25,1.6-1.66.64-4.58,1.84-6.55,1.19-1.94,3.97-2.14,6.15-1.52,2.19.62,4.23,1.84,6.5,1.97,3.96.24,7.27-2.78,10.07-5.58,2.07-2.08,4.3-4.62,3.87-7.52ZM67.11,66.7c-1.86,1.52-4.07,2.55-6.26,3.54-2.58,1.16-5.3,2.31-8.11,2.1-2.51-.19-4.84-1.47-6.71-3.15-1.88-1.68-3.36-3.74-4.83-5.78-.9-1.26-1.81-2.55-2.3-4.02-1.29-3.86.56-8.03,2.69-11.49,2.45-3.97,5.74-7.95,10.33-8.84,2.63-.51,5.38.09,7.82,1.2s4.62,2.71,6.78,4.3c3.5,2.88,4.16,5.08,5.15,9.39.4,1.75.15,5.44-.33,7.18-.63,2.24-2.36,4.06-4.22,5.58Z"/>
    </g>
  </g>
</svg>