<?xml version="1.0" encoding="UTF-8"?>
<svg id="Layer_2" data-name="Layer 2" xmlns="http://www.w3.org/2000/svg" viewBox="0 0 163.74 74.96">
  <defs>
    <style>
      .cls-1 {
        fill: #f9ecd7;
      }

      .cls-2 {
        fill: #507291;
      }

      .cls-3 {
        fill: #294860;
      }
    </style>
  </defs>
  <g id="Ebene_2" data-name="Ebene 2">
    <g>
      <path class="cls-3" d="M163.48,36.31c-.44-7.87-4.38-12.09-12.21-12.96-8.39-.93-16.87-1.33-25.3-1.65-17.45-.66-34.91-.48-52.37-.34l5.79,4.4c-2.66-7.46-9.64-27.19-20.54-23.08-4.1,1.55-8.93,4.45-8.52,9.4.24,2.88,2.06,5.14,3.41,7.62,1.65,3.03,3.18,6.14,4.51,9.32l5.79-7.6c-2.26.01-4.52.02-6.78.02l5.79,4.4C59.07,16.4,53.06,2.85,41.92.27c-6.06-1.41-8.86,2.96-11.08,7.7-2.47,5.27-4.31,10.91-7.02,16.05l5.18-2.97c-3.95-.13-7.45-.28-10.55,2.58-2.5,2.3-3.81,5.56-3.81,8.96l2.97-5.18c-5.59,2.51-14.14,5.36-16.81,11.35-1.66,3.73-.47,7.08,1.31,10.44,3.43,6.44,6.86,12.88,10.29,19.33,1.33,2.5,2.57,5.15,5.53,6.08,3.49,1.09,7.05-.99,10.07-2.43,1.45-.69,2.95-1.72,4.47-2.05,1.63-.35,3.87.13,5.52.19,3.48.12,7.64-.44,11,.36s6.17,3.14,9.53,3.93c6.27,1.49,10.55-1.81,11.73-7.88l-5.79,4.4c22.81.62,45.62.98,68.44.64,8.63-.13,20.15,1.34,26.08-6.4s4.77-20.01,4.5-29.06c-.23-7.7-12.23-7.74-12,0,.15,4.99,2.29,21.17-4.21,22.9-3.85,1.03-8.46.46-12.4.53-4.6.08-9.19.12-13.79.15-18.88.1-37.76-.25-56.63-.76-2.45-.07-5.3,1.9-5.79,4.4-.08.54-.2,1.08-.34,1.6,4.02-1.31,4.58-2.19,1.7-2.64-1.32-.82-3.29-1.47-4.71-2.17-3.89-1.92-7.52-1.69-11.82-1.83s-8.82-.94-12.87-.43c-1.78.22-3.01.87-4.62,1.67s-4.6,3.15-6.49,3.08l4.24,1.76c.89,1.13-.13-.43-.32-.83-.58-1.2-1.26-2.37-1.89-3.55-1.85-3.48-3.7-6.95-5.55-10.43-1.23-2.32-2.34-5.69-4.08-7.67-.09-.1-.26-.69-.37-.7-.42-.81-.31,0,.34,2.44.72-.48,1.46-.93,2.21-1.36,3.07-1.8,6.32-3.25,9.57-4.71,1.87-.84,2.97-3.24,2.97-5.18,0-.4-.64-.26-.79.07-1.04.27-.95.36.25.29.97.04,1.94.07,2.9.1,2.02.07,4.23-1.17,5.18-2.97,1.48-2.81,2.55-5.77,3.74-8.7.81-2,1.71-3.97,2.62-5.93.63-1.36,3.27-4.52.64-3.66-2.32.76.43,1.33,1.6,2.54s2.07,2.78,2.98,4.25c2.09,3.37,4.18,6.81,5.72,10.47,1.04,2.48,2.9,4.41,5.79,4.4,2.26,0,4.52-.01,6.78-.02,3.49-.02,7.34-3.89,5.79-7.6-1.19-2.83-2.4-5.65-3.76-8.41-1.11-2.25-3.69-5.28-4.05-7.73l-1.54,5.84c.75-.96,2.56-1,3.21-1.93-4.19-1.01-5.23-.61-3.13,1.19.63.8,1.22,1.63,1.76,2.49,2.36,3.64,4.06,7.6,5.51,11.67.89,2.5,3.01,4.43,5.79,4.4,13.56-.11,27.13-.25,40.7.01,6.49.12,12.98.33,19.46.68,3.57.19,7.14.42,10.7.7,2.06.16,6.9-.43,7.02,1.55.43,7.68,12.44,7.73,12,0Z"/>
      <path class="cls-1" d="M20.63,32.59c-.53,9.32-.17,17.46-.14,28.01,0,.85-.06,1.79.58,2.43.69.69,1.86.77,2.91.81,40.07,1.37,78.73,2.7,118.82,1.74,3.53-.08,7.37-.29,10.01-2.32,2.2-1.69,3.09-4.31,3.63-6.82,1.45-6.61,1.25-13.4,1.04-20.13-.07-2.2-.33-4.72-2.4-5.99-1.09-.67-2.48-.84-3.81-.97-42.39-4.08-85.07-.68-126.15-2.44-1.45-.06-4.54,1.51-4.49,5.68Z"/>
      <g>
        <path class="cls-2" d="M7.39,39.66c-1.48,1.06-1.95,3.06-1.09,4.66l12.69,23.83c.13.25.28.52.53.66.34.2.78.18,1.14.04,5.6-2.12,10.29-5.13,15.29-7.6.9-.44,1.82-.92,2.81-1.05,1.27-.17,2.55.21,3.76.64,6.41,2.24,11.05,6.11,17.58,7.97,1.11.32,2.36.26,2.73.06.85-.46,1.32-2.28,1.4-2.65,1.96-9.47.92-14.25-1.44-23.44-1.65-6.41-4.07-11.77-5.95-16.29-1.54-3.69-3.67-7.34-6.42-11.75-2.83-4.55-5.39-7.39-10.11-8.69-1-.27-2.04.18-2.49,1.11-1.8,3.79-4.54,9.45-6.25,14.02-.77,2.05-2.53,6.73-4.28,8.05-1.09.82-2.36,1.37-3.6,1.96-5.2,2.46-10.91,4.6-16.31,8.48Z"/>
        <path class="cls-3" d="M6.33,38.6c-2.15,1.71-2.37,4.47-1.16,6.8.62,1.2,1.27,2.38,1.9,3.58l6.8,12.76c.94,1.76,1.88,3.53,2.82,5.29.43.81.82,1.82,1.43,2.52,1.59,1.84,4.06.35,5.82-.43,2.02-.89,3.98-1.9,5.92-2.94s3.91-2.13,5.89-3.14c.94-.48,1.94-1.11,2.99-1.3,1.16-.22,2.31.18,3.39.56,4.11,1.43,7.78,3.79,11.68,5.67,1.88.9,3.87,1.79,5.9,2.31,1.7.43,3.69.56,4.84-.98.97-1.29,1.23-2.97,1.5-4.52.36-2.03.62-4.09.7-6.15.15-3.88-.46-7.72-1.33-11.48-1.9-8.26-4.73-16.37-8.46-23.99-1.87-3.82-4.07-7.59-6.5-11.09-2.02-2.9-4.44-5.38-7.76-6.76-1.63-.67-3.41-1.27-5.01-.19-1.47.99-2.1,3.27-2.83,4.81-1.75,3.72-3.44,7.46-4.91,11.31-.59,1.56-1.21,3.11-2,4.58-.89,1.66-1.83,2.53-3.53,3.38-3.93,1.96-8.04,3.55-11.93,5.6-2.03,1.07-4,2.26-5.87,3.58-1.56,1.11-.06,3.71,1.51,2.59,3.48-2.47,7.28-4.38,11.17-6.14,1.84-.83,3.69-1.66,5.52-2.52,1.5-.7,3.13-1.42,4.23-2.71,1.96-2.32,2.97-5.4,4.04-8.2,1.41-3.7,3.1-7.29,4.79-10.86.37-.77.72-1.55,1.1-2.31.47-.94.87-.77,1.8-.46,1.46.49,2.84,1.25,4.01,2.26,2.75,2.4,4.57,5.75,6.41,8.85,3.89,6.54,6.95,13.72,9.21,20.98s4.09,14.92,2.99,22.57c-.22,1.5-.34,3.24-1,4.64-.03.06-.37.58-.13.43-.25.15-.83.04-1.12,0-1.05-.14-2.12-.58-3.1-.95-3.69-1.41-7.05-3.54-10.6-5.25-1.84-.89-3.77-1.76-5.75-2.29s-3.82-.3-5.72.58c-3.73,1.73-7.25,3.89-10.93,5.71-.93.46-1.87.91-2.83,1.32-.49.21-1.08.35-1.53.63.03-.02-.7.28-.35.28.12,0,.07.15-.06-.14-.09-.19-.2-.38-.3-.57l-1.95-3.66-6.39-12c-1.33-2.49-2.87-4.97-4.02-7.55-.51-1.14-.11-2.14.83-2.89,1.51-1.2-.62-3.31-2.12-2.12Z"/>
      </g>
      <g>
        <path class="cls-2" d="M56.83,10.53c-.62.34-.83,1.12-.46,1.73,7.71,12.64,12.77,26.88,14.75,41.56.03.21.07.45.24.57.14.1.32.09.5.09,1.89-.09,3.78-.19,5.67-.28.25-.01.52-.04.68-.22.13-.15.15-.36.17-.55.52-6.56-.75-13.14-2.66-19.44-1.45-4.8-3.02-9.7-5.21-14.22-2.11-4.37-4.47-8.18-7.82-11.47-.22-.21-.55-.3-.85-.29-.24,0-.47.09-.69.18-.52.21-2.85,1.55-4.34,2.36Z"/>
        <path class="cls-3" d="M56.08,9.24c-1.51,1.07-1.66,2.62-.76,4.16,1.01,1.73,2.02,3.45,2.95,5.22,1.92,3.61,3.63,7.33,5.1,11.15,2.94,7.59,5.03,15.52,6.18,23.58.12.83.19,1.68.9,2.23.79.61,1.9.38,2.82.34,1.02-.05,2.05-.1,3.07-.15.94-.05,2.01.03,2.77-.6,1.31-1.09.9-3.97.87-5.48-.04-2.17-.26-4.32-.58-6.47-.64-4.25-1.83-8.38-3.11-12.47s-2.66-7.96-4.48-11.73-3.97-7.34-6.77-10.44c-1.39-1.53-2.64-2.6-4.74-1.63-1.45.67-2.82,1.54-4.23,2.31-1.69.93-.18,3.52,1.51,2.59,1.24-.68,2.46-1.39,3.7-2.04.67-.35.55-.26,1.07.29.65.69,1.28,1.4,1.87,2.15,2.28,2.88,4.06,6.19,5.58,9.53,1.69,3.72,2.95,7.63,4.14,11.53s2.29,8.03,2.76,12.18c.26,2.25.35,4.52.25,6.78v.23c-.18.48-.09.6.27.34.39-.12.41-.16.07-.12l-.47.02c-.55.03-1.1.05-1.65.08-.63.03-1.26.06-1.89.09-.43.02-1.11.18-1.52.04l.9.69c-.41-.59-.37-2.15-.48-2.85-.14-.88-.29-1.75-.46-2.63-.35-1.89-.76-3.77-1.21-5.64-.89-3.67-1.97-7.29-3.24-10.84s-2.71-7.01-4.32-10.4c-.83-1.74-1.7-3.45-2.62-5.14-.42-.78-.86-1.56-1.3-2.33-.22-.38-.45-.77-.67-1.15-.15-.25-.3-.51-.46-.76-.18-.49-.28-.51-.31-.06,1.56-1.11.06-3.71-1.51-2.59Z"/>
      </g>
    </g>
  </g>
</svg>