<?xml version="1.0" encoding="UTF-8"?>
<svg id="Layer_2" data-name="Layer 2" xmlns="http://www.w3.org/2000/svg" viewBox="0 0 148.06 81.01">
  <defs>
    <style>
      .cls-1 {
        fill: #b76b37;
      }

      .cls-2 {
        fill: #f9ecd7;
      }

      .cls-3 {
        fill: #f99b4e;
      }
    </style>
  </defs>
  <g id="Ebene_2" data-name="Ebene 2">
    <g>
      <path class="cls-1" d="M147.88,34.81c-.29-5.88-2.4-11.09-8.63-12.59-7.4-1.78-15.88-1.61-23.46-1.96-16.04-.75-32.1-.53-48.15-.38l4.24,1.76c-6.08-5.41-12.17-10.82-18.25-16.23-2.38-2.12-4.82-4.84-8.13-5.32-3.48-.5-6.71,1.47-9.63,3.1s-5.67,3.41-8.51,5.1-6.85,3.05-9.07,5.61c-2.07,2.39-2.2,5.31-2.38,8.31-.24,3.87-.71,7.73-1.23,11.57l10.97-1.43c-2.46-4.08-5.19-10.45-9.46-12.98-1.67-.99-4.42-1.26-6.06,0-3.25,2.49-8.02,7.79-8.25,12.1-.29,5.62,2.67,12.45,4.31,17.74l1.54-5.84c-2.41,2.64-5.49,6.02-7.03,9.24-1.79,3.73.07,6.57,2.56,9.39,2.34,2.65,4.77,5.82,7.53,8.05,3.69,2.98,7.76,1.3,11.82-.01l-6.78-2.76c2.7,4.98,6.82,11.9,12.94,12.17,7.66.33,15.58-.91,23.05-2.47l-7.6-5.79c.03,4.06.78,7.88,5.14,9.22,3.78,1.16,9.12.29,13.07.35s8.94.71,12.13-2.1,4.86-7.8,6.88-11.58l-5.18,2.97c17.84.41,35.83.9,53.65,0,7.37-.37,13.58-3.08,16.07-10.52s2.09-16.68,1.88-24.72-12.2-7.74-12,0c.16,6.36.98,13.9-1.02,20.05-1.01,3.11-2.67,3.07-5.71,3.22-3.61.17-7.25.17-10.87.23-14.01.2-28.01.06-42.02-.26-2.04-.05-4.21,1.16-5.18,2.97-1.09,2.04-2.07,4.14-3.16,6.18-.18.33-1.5,2.24-.78,1.78s-2.23-.19-2.45-.19c-2.04-.01-4.08-.07-6.12-.1-1.72-.02-4.75.6-6.38,0l3.59,2.76c.49,1.44.65,1.35.46-.27-.03-4.08-3.8-6.58-7.6-5.79-6.89,1.45-13.76,2.09-20.8,2.04l4.24,1.76c-2.31-2.51-4.26-4.98-5.89-7.98-1.21-2.24-4.33-3.55-6.78-2.76-1.18.38-3.1,1.29-4.39,1.34l4.24,1.76c-2.62-2.09-6.63-5.98-8.21-8.95v6.06c2.4-4.99,7.95-7.36,6.41-13.56-1.11-4.48-5.71-11.98-1.29-15.37h-6.06c1.29.77,4.12,6.95,5.15,8.67,2.39,3.97,10.23,3.97,10.97-1.43s1.11-10.78,1.72-16.17l-.8,1.3c.84-.42,1.67-.86,2.5-1.31,1.27-.69,2.51-1.41,3.75-2.15,2.34-1.4,4.64-2.88,7-4.24.99-.57,2.2-1.04,3.1-1.73,2.2-.72,2.28-1.08.26-1.08-1.63-.5-1.88-.36-.74.42.82,1.92,5.43,4.83,7.02,6.24,4.5,4,8.94,9,13.94,12.33,4.27,2.85,12.36,1.2,17.34,1.17,6.55-.04,13.11-.05,19.66.05s13.15.31,19.72.71c2.96.18,5.92.39,8.87.65,1.49.13,3.51-.05,4.93.47,1.85.68,1.24-1.16,1.35,1.17.38,7.69,12.38,7.73,12,0Z"/>
      <path class="cls-2" d="M23.25,31.09c-.46,9.32-.15,17.46-.12,28.01,0,.85-.05,1.79.5,2.43.59.69,1.61.77,2.52.81,34.74,1.37,68.25,2.7,103,1.74,3.06-.08,6.39-.29,8.67-2.32,1.91-1.69,2.67-4.31,3.15-6.82,1.25-6.61,1.08-13.4.91-20.13-.06-2.2-.28-4.72-2.08-5.99-.95-.67-2.15-.84-3.3-.97-36.75-4.08-73.75-.68-109.35-2.44-1.26-.06-3.93,1.51-3.9,5.68Z"/>
      <g>
        <path class="cls-3" d="M77.5,59.54c-2.18-2.46-4.35-4.91-6.53-7.37-.51-.58-1.07-1.18-1.81-1.4-.75-.22-1.55,0-2.29.24-.39.12-.77.27-1.16.39,1.23-7.27,2.46-14.54,3.69-21.81.08-.45.15-.91.07-1.36-.14-.82-.75-1.39-1.32-1.9-7.19-6.39-14.37-12.79-21.56-19.18-.57-.51-1.17-1.03-1.88-1.17-.86-.17-1.71.24-2.51.64-7.05,3.54-11,6.77-18.05,10.31-.59.3-1.21.62-1.61,1.21-.49.74-.54,1.74-.57,2.67-.12,4.1-.77,9.24-1.51,14.57-2.55-4.24-5.07-8.39-6.89-10.58-.11-.13-.25-.27-.42-.25-.12.02-.21.12-.28.22-1.41,1.78-2.82,3.56-4.23,5.33-.33.41-.67.85-.77,1.37-.09.44.01.89.11,1.33,1.11,5,2.45,9.94,3.99,14.82-.27.25-.52.53-.75.82-1.67,2.17-3.34,4.33-5.01,6.5-.16.21-.33.44-.34.7,0,.32.22.6.44.84,2.75,2.99,5.49,5.97,8.24,8.96.14.15.28.3.46.37.24.09.51.03.76-.03,1.76-.43,3.51-.95,5.23-1.53,1.47,2.84,3.42,5.58,6.82,9.19,7.5.13,15.02-.63,22.39-2.25,0,.86,0,1.71.03,2.57.02.57.5,1.03,1.08,1,5.04-.27,12.62.16,17.36,0,.56-.02,1.15-.05,1.63-.34.39-.24.66-.63.92-1.01,2.31-3.39,4.03-8.15,6.34-11.54.27-.4.56-.84.49-1.32-.05-.39-.32-.71-.58-1Z"/>
        <path class="cls-1" d="M78.56,58.48c-2.07-2.33-4.13-4.67-6.21-7-.79-.89-1.61-1.82-2.8-2.15-1.44-.41-2.91.17-4.25.63l1.85,1.85c1.23-7.27,2.54-14.53,3.69-21.81.24-1.53.13-2.82-.92-4.02-1.18-1.35-2.72-2.49-4.06-3.68-2.73-2.42-5.45-4.85-8.18-7.27s-5.7-5.07-8.55-7.6c-1.07-.95-2.15-2.17-3.5-2.71-1.64-.64-3.17.09-4.62.83-5.75,2.92-11.02,6.69-16.75,9.65-1.51.78-2.95,1.48-3.49,3.24-.45,1.49-.31,3.17-.41,4.71-.26,3.96-.79,7.91-1.34,11.84l2.74-.36c-1.87-3.1-3.7-6.25-5.82-9.19-.74-1.02-1.66-2.71-3.18-2.33-.72.18-1.12.82-1.55,1.36-.6.76-1.21,1.52-1.81,2.29-1,1.26-2.59,2.69-2.96,4.32s.47,3.77.87,5.4c.94,3.88,2.03,7.73,3.23,11.55l.39-1.46c-2.04,1.99-3.66,4.6-5.4,6.86-.8,1.04-1.55,2.12-.78,3.43.7,1.18,1.91,2.19,2.84,3.2,1.99,2.17,3.89,4.55,6.04,6.56,1.04.97,2.18.73,3.45.4,1.46-.38,2.91-.83,4.35-1.31l-1.69-.69c1.12,2.13,2.47,4.1,3.98,5.98.92,1.14,1.86,2.32,2.91,3.34s3.17.64,4.58.62c6.53-.11,13.05-.92,19.44-2.31l-1.9-1.45c0,1.78-.33,4.36,1.88,4.98.87.24,1.93.04,2.82.02s1.78-.02,2.67-.02c3.82.01,7.65.18,11.47.12,1.95-.03,3.56-.17,4.78-1.84s2.09-3.49,2.99-5.29,1.82-3.76,2.91-5.55c.45-.74,1.07-1.45,1.27-2.31.25-1.12-.27-1.99-.96-2.81-1.24-1.48-3.36.65-2.12,2.12.23.27-1.84,3.36-2.08,3.82-.72,1.38-1.39,2.79-2.09,4.17s-1.4,2.82-2.32,4.06c-.72.97-2.48.64-3.6.64-2.89,0-5.77-.08-8.66-.11-1.42-.02-2.84-.02-4.27,0-.61.01-1.49.21-2.09.07.63.14.41-.25.4-.78,0-.43,0-.86,0-1.28,0-1.02-.95-1.65-1.9-1.45-7.23,1.57-14.59,2.31-21.99,2.2l1.06.44c-2.54-2.72-4.86-5.58-6.59-8.89-.29-.56-1.09-.89-1.69-.69-1.08.36-2.16.7-3.25,1.01-.5.14-1.06.22-1.53.41-.52.07-.59.12-.2.15-.22-.24-.44-.48-.66-.72-1.54-1.67-3.08-3.35-4.61-5.02-.77-.84-1.54-1.67-2.31-2.51-.22-.24-.44-.48-.66-.72.09.41.23.38.42-.1.34-.26.63-.81.88-1.15,1.4-1.81,2.7-3.89,4.34-5.49.37-.36.54-.96.39-1.46-1.2-3.81-2.29-7.66-3.23-11.55-.23-.93-.45-1.86-.65-2.8-.11-.51-.25-.86-.06-1.37.15-.4.57-.77.84-1.1.6-.76,1.21-1.52,1.81-2.29.42-.53,1.27-2,1.79-2.27l-1.16.15c-.31-.21-.33-.18-.06.09.12.15.23.29.34.45.29.38.56.77.83,1.16.54.78,1.06,1.58,1.58,2.39,1.28,2,2.5,4.03,3.72,6.06.6.99,2.56.99,2.74-.36.44-3.15.86-6.31,1.18-9.47.13-1.32.24-2.64.32-3.96.06-1.14-.25-2.95.76-3.71s2.48-1.3,3.64-1.94c1.37-.75,2.71-1.55,4.05-2.35,2.34-1.42,4.66-2.89,7.04-4.25,1.26-.72,2.54-1.41,3.84-2.07.58-.29,1.22-.71,1.89-.49.7.24,1.48,1.2,2.02,1.68,2.48,2.2,4.96,4.41,7.43,6.61s4.96,4.41,7.43,6.61c1.24,1.1,2.48,2.2,3.72,3.31.79.7,2.68,1.81,2.78,2.95.08.92-.31,2.02-.46,2.93-.16.97-.33,1.94-.49,2.91-.3,1.78-.6,3.55-.9,5.33-.63,3.72-1.26,7.43-1.89,11.15-.18,1.04.66,2.25,1.85,1.85,1.08-.37,2.3-1.07,3.27-.19.79.72,1.46,1.62,2.16,2.41,1.63,1.84,3.27,3.69,4.9,5.53,1.28,1.45,3.4-.68,2.12-2.12Z"/>
      </g>
      <path class="cls-1" d="M33.03,64.61c3.2-11.26,5.87-22.65,8.79-33.97.27-1.04-.49-1.77-1.45-1.9-2.97-.39-3.61,4.05-4.18,6.04-.9,3.15-1.72,6.32-2.47,9.5-1.51,6.45-2.7,12.97-3.59,19.54-.11.81.2,1.6,1.05,1.85.7.2,1.74-.25,1.85-1.05.78-5.77,1.8-11.52,3.06-17.2.62-2.8,1.3-5.6,2.04-8.37.37-1.39.75-2.77,1.15-4.15.2-.69.4-1.38.61-2.07.07-.23.12-.48.22-.7.06-.14.13-.27.23-.39.09-.14.1-.13.03.02l-1.45-1.9c-2.92,11.33-5.59,22.72-8.79,33.97-.53,1.86,2.36,2.65,2.89.8h0Z"/>
      <path class="cls-1" d="M40.5,30.85c-3.22-4-6.92-7.55-11-10.65-.59-.45-1.53-.15-1.94.39-.45.61-.41,1.41.12,1.97,1.65,1.75,3.55,3.24,5.55,4.58,1.02.69,2.06,1.33,3.11,1.96s2.32,1.72,3.53,1.54c1.27-.19,1.62-1.56,1.99-2.6.33-.94.62-1.89.9-2.84.56-1.9,1.07-3.82,1.61-5.73.22-.78-.27-1.63-1.05-1.85-.85-.23-1.55.29-1.85,1.05-.68,1.75-1.07,3.62-1.35,5.48s-.5,3.87-.37,5.81c.05.81.65,1.5,1.5,1.5.77,0,1.55-.69,1.5-1.5-.22-3.46.36-7.26,1.61-10.5l-2.89-.8c-.47,1.66-.91,3.33-1.39,4.99-.26.89-.52,1.77-.81,2.65-.21.64-.46,1.58-.76,2.01l.54-.54-.14.09.76-.2h-.24c.25.06.5.13.76.2-1.92-.93-3.78-2.18-5.55-3.38s-3.38-2.51-4.84-4.05l-1.82,2.36c3.87,2.94,7.35,6.4,10.4,10.18.51.63,1.59.53,2.12,0,.62-.62.51-1.49,0-2.12h0Z"/>
      <path class="cls-1" d="M40.57,31.48c4.31-.05,8.61-.03,12.92.06v-3c-4.36.21-8.73.11-13.08-.31-.81-.08-1.5.74-1.5,1.5,0,.88.69,1.42,1.5,1.5,4.35.42,8.72.52,13.08.31,1.92-.09,1.94-2.96,0-3-4.31-.09-8.61-.11-12.92-.06-1.93.02-1.93,3.02,0,3h0Z"/>
      <path class="cls-1" d="M54.33,66.24c.78-2.85,1.22-5.75,1.47-8.69.03-.39.09-.85.23-1.12.02-.04.21-.29.1-.17-.07.08.07-.06.11-.08.15-.06.48-.14.7-.19,1.49-.34,2.99-.66,4.48-1l-.8-2.89c-1.38.38-2.76.76-4.14,1.14-.7.19-1.47.32-2.13.62-.92.42-1.09,1.22-1.18,2.13-.27,2.89-.54,5.79-.8,8.68-.07.81.74,1.5,1.5,1.5.87,0,1.43-.69,1.5-1.5.14-1.51.28-3.02.42-4.52.07-.73.14-1.47.2-2.2.03-.37.07-.73.1-1.1.02-.16.03-.33.05-.49.01-.14.17-.78-.05-.27l-.54.54c.18-.14.91-.28,1.26-.37l1.54-.42c1.02-.28,2.05-.57,3.07-.85,1.87-.52,1.08-3.31-.8-2.89-1.61.36-3.25.66-4.84,1.08s-2.53,1.54-2.82,3.09c-.27,1.45-.28,2.94-.5,4.4-.25,1.61-.59,3.21-1.03,4.78-.51,1.86,2.38,2.66,2.89.8h0Z"/>
      <path class="cls-1" d="M20.29,41.49c.02,3.13.05,6.27.07,9.4.01,1.51.03,3.02.25,4.52.1.68.26,1.34.45,2,.09.33.19.66.26.99.05.2.09.4.12.61.02.39.02.45.02.21l.54-.54-.15.1.76-.2h-.18c.35.14.71.28,1.06.43-.71-.63-1.26-1.51-1.86-2.26-.63-.79-1.26-1.59-1.89-2.38-1.2-1.51-2.44-2.98-3.3-4.71l-2.36,1.82c2.62,2.07,4.84,4.54,6.59,7.39.77,1.26,2.8.75,2.8-.76,0-4.88,0-9.75,0-14.63,0-1.93-3-1.93-3,0,0,4.88,0,9.75,0,14.63l2.8-.76c-1.87-3.06-4.25-5.77-7.06-8-1.31-1.04-3.15.22-2.36,1.82,1.28,2.57,3.33,4.77,5.11,7,.47.6.95,1.2,1.42,1.79.45.56.9,1.34,1.64,1.54,1.48.41,2.47-1,2.43-2.33-.04-1.46-.66-2.81-.89-4.24s-.19-2.83-.2-4.24l-.07-9.22c-.01-1.93-3.01-1.93-3,0h0Z"/>
      <path class="cls-3" d="M44.41,28.45c5.17.03,10.05,1.44,15.01,2.73l-.36-2.74c-1.8,1.15-3.63,1.63-5.9,2.03-3.42.6-6.88.98-10.3,1.53-.8.13-1.25,1.13-1.05,1.85.23.85,1.04,1.18,1.85,1.05,3.49-.56,7-.94,10.48-1.56,2.27-.41,4.48-1.05,6.44-2.3,1.06-.67.93-2.41-.36-2.74-5.21-1.35-10.37-2.81-15.81-2.84-1.93,0-1.93,2.99,0,3h0Z"/>
      <path class="cls-3" d="M28.03,51.73c0,5.54.09,11.09.27,16.63.04,1.22,1.66,2.07,2.56,1.06,2.39-2.68,4.44-5.63,6.42-8.62.96-1.44,1.9-2.9,2.88-4.33.92-1.35,1.83-3.04,3.22-3.96,1.6-1.07.1-3.67-1.51-2.59s-2.56,2.53-3.6,4.03-2.05,3.04-3.06,4.57c-2,3.04-4.03,6.06-6.46,8.78l2.56,1.06c-.18-5.54-.27-11.08-.27-16.63,0-1.93-3-1.93-3,0h0Z"/>
      <path class="cls-3" d="M49.51,54.13c-.31,5.25.15,10.52,1.32,15.65.43,1.88,3.32,1.09,2.89-.8-1.11-4.87-1.51-9.86-1.21-14.85.11-1.93-2.89-1.92-3,0h0Z"/>
      <path class="cls-3" d="M56.02,69.74c.91-3.94,2.01-7.84,3.3-11.68.26-.77-.3-1.64-1.05-1.85-.82-.22-1.59.28-1.85,1.05-1.29,3.84-2.39,7.74-3.3,11.68-.18.79.24,1.62,1.05,1.85.76.21,1.66-.25,1.85-1.05h0Z"/>
      <path class="cls-3" d="M50.93,53.54c3.61-.62,7.36-.67,10.98-.14.8.12,1.61-.2,1.85-1.05.19-.71-.24-1.73-1.05-1.85-4.2-.62-8.39-.58-12.58.14-.8.14-1.25,1.12-1.05,1.85.23.85,1.04,1.19,1.85,1.05h0Z"/>
      <path class="cls-3" d="M58.56,58.9c.1-.09.2-.19.31-.27.08-.07.27-.16-.05.04.05-.03.1-.07.15-.11.22-.16.45-.3.69-.44.48-.27.98-.5,1.49-.73,1.02-.45,2.05-.85,2.99-1.45.66-.42.99-1.35.54-2.05-.43-.66-1.34-.99-2.05-.54-.97.62-2.03,1.03-3.08,1.49-1.13.5-2.2,1.09-3.1,1.94-.57.54-.58,1.59,0,2.12.61.56,1.51.57,2.12,0h0Z"/>
      <path class="cls-3" d="M25.58,61.83c-.51-7.54.07-15.08,1.79-22.44.44-1.88-2.45-2.68-2.89-.8-1.77,7.61-2.43,15.44-1.9,23.23.13,1.92,3.13,1.93,3,0h0Z"/>
      <path class="cls-3" d="M11.79,53.65c4.2,5.18,9.42,9.44,14.36,13.89,1.43,1.29,3.56-.83,2.12-2.12-4.94-4.44-10.16-8.7-14.36-13.89-.51-.63-1.59-.53-2.12,0-.62.62-.51,1.49,0,2.12h0Z"/>
      <path class="cls-3" d="M26.6,49.87c-.73-4.01-1.37-8.04-2.38-11.99-.48-1.87-3.37-1.08-2.89.8,1.01,3.95,1.65,7.98,2.38,11.99.14.8,1.11,1.25,1.85,1.05.84-.23,1.19-1.05,1.05-1.85h0Z"/>
      <path class="cls-3" d="M20.04,47.09c.34-2.45.95-4.86,1.8-7.19.27-.74-.3-1.68-1.05-1.85-.85-.19-1.56.26-1.85,1.05-.85,2.33-1.45,4.74-1.8,7.19-.06.42-.07.78.15,1.16.18.31.54.61.9.69.71.16,1.73-.22,1.85-1.05h0Z"/>
      <path class="cls-3" d="M18.81,47.88c-1.09-.36-2.17-.79-3.27-1.11-.37-.11-.82-.04-1.16.15-.31.18-.61.54-.69.9-.18.8.24,1.61,1.05,1.85,1.11.32,2.18.75,3.27,1.11.36.12.84.04,1.16-.15s.61-.54.69-.9c.19-.83-.25-1.58-1.05-1.85h0Z"/>
      <path class="cls-3" d="M18.98,57.75c.12.04.16.1.03,0,.1.08.14.12.02,0-.11-.1-.08-.09,0,.02-.05-.07-.09-.14-.14-.21-.22-.36-.41-.75-.6-1.13-.38-.77-.74-1.54-1.09-2.32-.7-1.55-1.39-3.1-2.16-4.61-.36-.7-1.4-.96-2.05-.54-.71.46-.92,1.3-.54,2.05.85,1.64,1.58,3.34,2.35,5.02.39.85.79,1.7,1.22,2.53.49.94,1.12,1.74,2.17,2.08.75.24,1.67-.28,1.85-1.05.19-.82-.25-1.59-1.05-1.85h0Z"/>
      <path class="cls-3" d="M35.17,29.21c-3.1-2.79-5.74-5.86-7.96-9.29-.43-.66-1.35-.99-2.05-.54-.66.42-1,1.35-.54,2.05,2.37,3.65,5.2,6.99,8.43,9.89.58.52,1.55.62,2.12,0,.53-.57.62-1.56,0-2.12h0Z"/>
      <path class="cls-3" d="M37.92,22.81c-3.38-1.82-6.91-3.38-10.53-4.67-.76-.27-1.64.31-1.85,1.05-.23.83.28,1.57,1.05,1.85,3.39,1.2,6.65,2.66,9.82,4.37.71.38,1.63.18,2.05-.54s.18-1.67-.54-2.05h0Z"/>
      <path class="cls-3" d="M39.68,25.38c1.55-2.78,3.07-5.59,4.54-8.41.36-.69.2-1.66-.54-2.05-.69-.36-1.66-.2-2.05.54-1.48,2.82-2.99,5.63-4.54,8.41-.38.69-.19,1.67.54,2.05s1.64.19,2.05-.54h0Z"/>
      <path class="cls-3" d="M45.71,27.37c.69-3.26.5-6.67.52-9.98,0-.78-.69-1.54-1.5-1.5s-1.49.66-1.5,1.5c0,1.6,0,3.2-.03,4.81-.02,1.52-.09,2.98-.38,4.38-.16.77.22,1.66,1.05,1.85.75.17,1.67-.23,1.85-1.05h0Z"/>
    </g>
  </g>
</svg>