<?xml version="1.0" encoding="UTF-8"?>
<svg id="Layer_2" data-name="Layer 2" xmlns="http://www.w3.org/2000/svg" viewBox="0 0 849.85 315.94">
  <defs>
    <style>
      .cls-1 {
        fill: #93acc6;
      }

      .cls-2 {
        fill: #507291;
      }
    </style>
  </defs>
  <g id="Ebene_2" data-name="Ebene 2">
    <g>
      <path class="cls-1" d="M808.72,312.83c10.82-.18,30.46-4.06,34.83-18.43,6.23-20.47,1.95-33.58.71-62.5V47.03c-.21-5.48-.51-26.39-3.53-30.97-4.16-6.32-12.25-8.57-19.68-9.96-28.28-5.3-80.69-1.95-109.46-1.71H114.74c-23.6.2-38.58-.07-62.14,1.33-13.15.78-23.95,1.48-34.91,8.79C6.73,21.82,1.56,31.03,3.19,62.64v210c.26,12.62,4.69,23.85,9.91,30.53,9.74,12.45,65.33,8.65,81.14,8.57h630s62.45,1.46,84.47,1.08Z"/>
      <path class="cls-2" d="M808.72,315.83c12.55-.32,27.93-3.87,35.19-15.13,3.94-6.11,5.02-14.43,5.64-21.54.66-7.58.09-15.19-.54-22.75-1.28-15.26-1.75-30.04-1.75-45.29,0-43.66,0-87.32,0-130.98,0-11.02.17-22.06,0-33.08-.08-5.28-.32-10.58-.71-15.85s-.42-11.96-3.23-16.66c-7.63-12.79-29.4-12.92-42.43-13.73-34.41-2.13-68.94.57-103.38.57-27.14,0-54.29,0-81.43,0-42.89,0-85.78,0-128.67,0-47.87,0-95.74,0-143.61,0-43.11,0-86.23,0-129.34,0-27.97,0-55.95,0-83.92,0-5.12,0-10.24-.02-15.36,0-12.65.04-25.32.05-37.97.33-10.42.23-20.87.63-31.27,1.44-9.09.71-18.08,2.21-26.19,6.61C10.08,15.02,3.71,22.9,1.46,33.75-.62,43.77.1,53.89.19,64.03c.12,12.87,0,25.75,0,38.63,0,44.9,0,89.8,0,134.71,0,11.59-.16,23.19,0,34.78.15,11.26,3.3,26.71,12.21,34.59,7.97,7.05,21.93,7.43,31.92,8.08,22.61,1.47,45.44-.07,68.11-.07,28.07,0,56.15,0,84.22,0,42.68,0,85.35,0,128.03,0,48.08,0,96.16,0,144.24,0,44.29,0,88.58,0,132.87,0,31.22,0,62.45,0,93.67,0,13.1,0,26.19-.05,39.29.23,24.64.52,49.33,1.24,73.97.85,3.86-.06,3.87-6.06,0-6-29.8.47-59.58-1.08-89.38-1.08h-62.87c-38.02,0-76.04,0-114.06,0-46.39,0-92.77,0-139.16,0H97.07c-11.65,0-23.28.64-34.93.61-12.95-.04-26.95.09-39.4-3.93s-16.31-21.11-16.54-32.93c-.6-31.76,0-63.59,0-95.35,0-37.01,0-74.01,0-111.02,0-17.55-3.21-38.61,13.73-49.48,8.63-5.54,18.43-6.99,28.47-7.66s20.28-1.1,30.43-1.3c12.13-.24,24.28-.26,36.41-.29,16.21-.05,32.42,0,48.64,0,35.89,0,71.79,0,107.68,0h137.61c46.29,0,92.59,0,138.88,0,36.66,0,73.32,0,109.98,0,17.49,0,34.97.04,52.46,0,23.21-.05,46.39-1.45,69.6-1.24,15.76.15,33.48-.31,48.56,4.94,3.7,1.29,8.09,3.48,9.87,7.21,1.29,2.71,1.43,6.36,1.72,9.3.62,6.26.87,12.58,1,18.88.64,31.97.02,64.01.02,95.98,0,21.28,0,42.57,0,63.85,0,12.71-.21,25.35.75,38.03,1.14,15.08,3.49,30.35-.24,45.26-1.92,7.68-5.82,12.7-13.09,16.03-6.2,2.84-13.19,4.02-19.96,4.2-3.85.1-3.87,6.1,0,6Z"/>
    </g>
  </g>
</svg>