<?xml version="1.0" encoding="UTF-8"?>
<svg id="Layer_2" data-name="Layer 2" xmlns="http://www.w3.org/2000/svg" viewBox="0 0 861.73 322.62">
  <defs>
    <style>
      .cls-1 {
        fill: #93acc6;
      }

      .cls-2 {
        fill: #507291;
      }
    </style>
  </defs>
  <g id="Ebene_2" data-name="Ebene 2">
    <g>
      <path class="cls-1" d="M8.34,64.84c-4.04,63.53-10.18,145.22,1.66,216.76,1.39,8.37,3.02,17.09,8.25,23.77,9.74,12.45,27.89,13.44,43.7,13.36,94.6-.48,189.19-.96,283.79-1.44,160.67-.81,321.5,7.94,481.73-4.06,10.79-.81,23.34-2.74,28.59-12.2,2.9-5.23,2.75-11.56,2.53-17.54-3.06-80.61-6.12-170.79-9.18-251.4-.21-5.48-.51-11.26-3.53-15.84-4.16-6.32-12.25-8.57-19.68-9.96-28.28-5.3-55.51-2.62-84.28-2.38-211.57,1.75-410.46.92-622.03,2.67-23.6.2-38.58-.07-62.14,1.33-13.15.78-23.95,1.48-34.91,8.79-10.96,7.32-13.66,34.99-14.5,48.14Z"/>
      <path class="cls-2" d="M5.34,64.84c-4.48,70.27-9.72,141.48.81,211.47,2.22,14.72,4.74,30.5,18.72,38.67,12.52,7.32,28.09,6.8,42.08,6.73,40.3-.2,80.61-.41,120.91-.61,80.84-.41,161.7-1.32,242.54-.51,80.66.81,161.31,2.69,241.97,1.8,40.46-.45,80.92-1.59,121.32-3.92,9.94-.57,19.87-1.22,29.8-1.94,7.29-.53,14.85-.94,21.78-3.49,5.73-2.1,10.94-5.63,13.73-11.22,3.65-7.28,2.67-15.82,2.38-23.68-2.83-74.83-5.38-149.67-8.17-224.5-.34-9.07-.21-18.32-1.18-27.35-.74-6.88-3.19-12.98-8.99-17.06-6.29-4.42-14.39-5.69-21.82-6.82-9.1-1.38-18.29-2.07-27.48-2.3-19.59-.49-39.21.69-58.8.85s-40.32.3-60.48.42c-78.6.47-157.21.66-235.81.84-79.17.18-158.34.35-237.5.79-38.25.21-76.51.17-114.75.81-8.91.15-17.81.47-26.7.97-7.76.44-15.67.77-23.24,2.67-6.18,1.55-13.22,4.26-17.82,8.83-3.84,3.82-6.06,9.09-7.73,14.14-3.64,11.01-4.82,22.87-5.57,34.39-.25,3.86,5.75,3.84,6,0,.77-11.76,1.96-23.98,6.16-35.09,2.27-6,5.38-10.03,11.14-13,7.23-3.72,15.24-4.87,23.26-5.47,35.14-2.59,70.57-1.75,105.78-2,76.23-.53,152.45-.76,228.68-.94,75.4-.18,150.81-.31,226.21-.64,38.46-.17,76.93-.39,115.39-.69,18.76-.15,37.52-.95,56.28-1,9.52-.02,19.06.27,28.53,1.3,8.11.88,17.55,1.69,24.88,5.63,8.69,4.67,8.56,13.99,8.89,22.7s.66,17.44.98,26.17c.67,18.2,1.34,36.41,1.99,54.61,1.31,36.27,2.59,72.55,3.92,108.82.65,17.93,1.31,35.86,1.99,53.78.3,8.04,1.69,17.82-4.67,24.01-5.07,4.93-13.11,6.21-19.85,6.89-38.01,3.85-76.57,4.72-114.74,5.67-77.64,1.95-155.31.67-232.95-.38-77.8-1.05-155.58-.84-233.38-.45-38.64.2-77.28.39-115.91.59-19.65.1-39.3.2-58.96.3-14.65.07-31.73,1.9-45.28-4.91-15.75-7.91-16.69-27.67-18.74-43.12-2.29-17.26-3.59-34.64-4.26-52.03-1.35-34.81-.15-69.66,1.79-104.42.87-15.45,1.89-30.89,2.88-46.34.25-3.86-5.76-3.84-6,0Z"/>
    </g>
  </g>
</svg>