<?xml version="1.0" encoding="UTF-8"?>
<svg id="Layer_2" data-name="Layer 2" xmlns="http://www.w3.org/2000/svg" viewBox="0 0 132 123.21">
  <defs>
    <style>
      .cls-1 {
        fill: #d18652;
      }

      .cls-2 {
        fill: #a55d2d;
      }

      .cls-3 {
        fill: #824216;
      }
    </style>
  </defs>
  <g id="Ebene_2" data-name="Ebene 2">
    <g>
      <path class="cls-3" d="M131.68,41.54c-2.16-6.72-9.58-10.39-15.13-14.08l2.76,3.59c-.87-4.02-1.81-8.04-5.16-10.71s-8.06-3.04-12.31-3.54c-8.85-1.05-16.04-7.35-23.37-12.1s-16.65-7-24.14-1.41c-3.23,2.41-5.41,6.06-9.1,7.79s-7.3,2.91-10.39,5.82l4.24-1.76c-6.2.58-13.95.13-19.33,3.65s-6.72,8.99-6.83,14.99l1.76-4.24c-6.07,5.27-11.23,14.86-13.86,22.38-1.47,4.2-1.13,8.88,2.2,12.1s9.13,3.81,13.45,5.24l-4.4-5.79c-.26,9.42-.48,18.84-.25,28.26.15,6.46-.92,16.04,5.46,19.93,3.52,2.15,8.15,1.95,12.14,2.17s6.78,1.32,10.65,2.77c8.34,3.12,16.97,4.94,25.79,5.99,2.3.27,5.47-2.04,5.79-4.4.39-2.88.78-5.76,1.17-8.64l-5.79,4.4c6.02-.13,12.04-.24,18.06-.24l-1.6-11.79c-4.6,1.79-12,1.94-13.88,7.31-1.28,3.66-1.36,9.71,1.96,12.28,5.73,4.42,17.27-.85,22.74-3.69l-9.03-5.18h0c0,4.58,5.09,7.43,9.03,5.18,2.6-1.48,4.93-3.52,7.03-5.63l-4.24,1.76c5.22.22,11.61,1.65,16.45-.96,5.08-2.74,6.44-8.91,7.25-14.15,1.94-12.54,1.36-25.93,1.27-38.6l-1.76,4.24c5.45-5.01,11.28-13.75,11.57-21.34s-11.7-7.71-12,0c-.1,2.6-3,6.56-4.36,8.61-1.75,2.64-4.75,4.46-5.35,7.69-.71,3.86-.11,8.44-.18,12.4s-.17,7.62-.24,11.43-.04,7.48-.41,11.2c-.19,1.96-.56,3.82-1.02,5.74-.67,2.83-.15,1.66-2.05,2.24-3.26,1-7.37-1.32-10.77-.28-2.83.87-4.68,3.83-7.25,5.29l9.03,5.18h0c0-4.72-5.05-7.25-9.03-5.18-1.97,1.02-4.09,1.72-6.21,2.36-1.21.36-2.42.72-3.66.97-.53.11-2.23-.02-1.58.23l4.19,4.19c-.29-.74.02-1.97.19-2.78l-2.76,3.59c2.18-1.2,5.83-1.57,8.26-2.51,5.99-2.32,5.61-11.79-1.6-11.79-6.02,0-12.04.11-18.06.24-2.34.05-5.43,1.81-5.79,4.4-.39,2.88-.78,5.76-1.17,8.64l5.79-4.4c-7.13-.85-14.16-2.56-20.93-4.95-2.98-1.06-5.97-2.84-9.05-3.45-1.78-.35-3.71-.22-5.52-.31-1.4-.07-4.43-.92-5.66-.37-1.19-.35-1.3-.03-.33.96l-.11-1.03c.35-1.27-.21-3.31-.28-4.68-.16-3.44-.22-6.89-.25-10.34-.05-7.65.12-15.3.33-22.95.07-2.73-1.93-4.97-4.4-5.79-1.74-.58-3.48-1.12-5.25-1.61-.98-.26-1.96-.51-2.94-.77.5.71.81.67.92-.12,1.15-2.71,2.76-5.36,4.2-7.93,2.75-4.94,7.82-9.19,8.34-14.78.6-6.49,9.15-4.49,14.13-5.33,3.03-.51,4.53-2.38,7.2-3.62,3.07-1.43,6.04-2.3,8.74-4.46,2.19-1.75,3.82-4.11,6-5.83,3.17-2.49,6.86-.88,9.96.93,5.91,3.44,11.28,7.58,17.35,10.82,3.15,1.68,5.73,3.02,9.31,3.38,1.98.2,7.43-.06,8.99,1.32.9.8.64,3.39,1.1,4.55.66,1.66,1.45,2.49,2.76,3.59,1.9,1.6,8.82,4.42,9.62,6.91,2.35,7.32,13.94,4.19,11.57-3.19Z"/>
      <path class="cls-2" d="M27.04,22.35c-4.54.47-8.01,4.27-8.07,8.84-.28,21.43-2.22,52.64-.58,71.72.1,1.16.52,2.34,1.34,3.17,1.02,1.04,2.6,1.23,4.05,1.36,26.94,2.25,54.09-1.03,81.05.91,2.4.17,5.1.29,6.87-1.33.98-.9,1.5-2.18,1.9-3.45,1.71-5.32,2.02-10.99,2.1-16.58.26-18.7,1.64-39.28-2.88-57.43-.37-1.47-.78-3.01-1.83-4.12-1.3-1.38-3.3-1.81-5.18-2.11-9.21-1.49-20.96-1.65-30.24-2.67-15.64-1.72-30.82-.15-48.54,1.68Z"/>
      <path class="cls-1" d="M125.89,43.13c-.23-1.79-1.79-3.07-3.25-4.14-8.04-5.91-16.49-11.26-25.26-16-5.53-2.99-11.21-5.74-16.41-9.27-3.25-2.2-6.34-4.72-9.93-6.32-3.59-1.61-7.88-2.2-11.4-.46-3.74,1.85-5.89,5.92-9.38,8.23-2.99,1.98-6.76,2.54-9.66,4.64-2.86,2.06-4.53,5.35-6.8,8.05-2.27,2.7-11.16,3.59-14.17,5.42-4.07,2.47-8.68,11.8-12.13,18.26-1.32,2.47-2.48,5.71-.67,7.85,1.02,1.21,2.68,1.62,4.22,2,4.78,1.19,9.46,2.8,13.96,4.8-3,4.86-3.75,10.84-3.15,16.52.6,5.68,2.45,11.14,4.35,16.52.61,1.73,1.26,3.5,2.45,4.88,1.24,1.43,2.97,2.34,4.68,3.16,10.21,4.91,21.26,8.07,32.52,9.31.88-6.52,1.77-13.04,2.65-19.56.18-1.36.41-2.8,1.33-3.82.66-.73,1.59-1.14,2.5-1.52,8.17-3.44,16.53-6.41,25.04-8.89-.33,6.65-1.34,13.26-2.97,19.71-5.58,4.16-12.05,6.62-18.46,8.02-.21.05-.44.11-.54.3-.07.14-.24,1.25-.26,1.4-.19,1.31-.3,3.04-.16,3.97.03.21.07.44.23.59.13.12.33.16.51.19,3.25.51,12.69-2.75,15.57-4.35h0s0,0,0,0c1.09-.61,1.82-1.11,2.43-1.63,6.02-4.52,9.8-11.33,11.79-18.6,2.22-8.1,3.38-16.43,3.85-24.81.05-.89.1-1.81.5-2.61.72-1.47,2.37-2.19,3.79-3.02,5.51-3.22,8.54-9.33,11.27-15.1.56-1.18,1.13-2.44.96-3.73ZM55.14,87.03c.06.4.13.84-.1,1.18-.14.21-.37.34-.6.47-.61.34-1.25.68-1.94.78-.73.1-1.46-.08-2.17-.26-5.66-1.44-11.32-2.87-16.98-4.31-.3-.08-.62-.17-.81-.41-.21-.27-.2-.64-.18-.98.31-5.03,1.05-10.03,2.2-14.93,5.94,1.55,15.07,3.54,21.7,3.49-1.53,4.81-1.92,9.99-1.13,14.98Z"/>
    </g>
  </g>
</svg>